<?xml version="1.0" encoding="utf-8"?>
<!-- Generator: Adobe Illustrator 24.3.0, SVG Export Plug-In . SVG Version: 6.00 Build 0)  -->
<svg version="1.1" id="Layer_1" xmlns="http://www.w3.org/2000/svg" xmlns:xlink="http://www.w3.org/1999/xlink" x="0px" y="0px"
	 viewBox="0 0 617.3 109.6" style="enable-background:new 0 0 617.3 109.6;" xml:space="preserve">
<style type="text/css">
	.st0{enable-background:new    ;}
	.st1{fill:#007DC4;}
	.st2{fill:#982887;}
</style>
<g id="Layer_2_1_">
	<g id="Layer_1-2">
		<g class="st0">
			<path class="st1" d="M177.6,82.9h0.7c4.4,0,5.6-2.3,5.7-4h3.8v23.2h-4.6v-16h-5.5V82.9z"/>
			<path class="st1" d="M199.3,88.2c0.9-0.6,1.9-1.3,4.2-1.3c3.1,0,7,2.2,7,7.5c0,3.2-1.6,8.3-8.4,8.3c-3.6,0-7.3-2.2-7.6-6.8h4.6
				c0.2,1.9,1.2,3.2,3.2,3.2c2.2,0,3.5-1.9,3.5-4.4c0-2.1-1-4.2-3.4-4.2c-0.6,0-2.2,0-3.1,1.7l-4.1-0.2l1.6-12.8h12.8v3.9h-9.5
				L199.3,88.2z"/>
		</g>
		<g class="st0">
			<path class="st1" d="M216,81.1h1.7V83H216v5.5c0,0.6,0,0.8,1.1,0.8c0.2,0,0.4,0,0.6,0v2c-0.4,0-0.8,0-1.3,0h-0.3
				c-2.3,0-2.7-0.9-2.7-2.2V83H212v-1.9h1.4v-2.7h2.7V81.1z"/>
			<path class="st1" d="M228.5,91.2h-2.7v-6.1c0-0.7,0-2-1.7-2c-1.2,0-2.1,0.8-2.1,2.3v5.8h-2.7V77.6h2.7v4.8h0
				c0.3-0.8,1.5-1.6,2.9-1.6c2,0,3.5,1.2,3.5,3.4V91.2z"/>
		</g>
		<g class="st0">
			<path class="st1" d="M244.7,102.1h-5.2l8.4-23.5h5.7l8.3,23.5h-5.3l-1.5-4.8h-8.7L244.7,102.1z M247.7,93.2h6l-2.9-9.3h-0.1
				L247.7,93.2z"/>
			<path class="st1" d="M280.4,102.1H276v-2.5h-0.1c-1,1.9-2.9,2.9-5.3,2.9c-3.4,0-5.9-2-5.9-6.4V84.7h4.6v10.8c0,2.7,1.6,3.2,3,3.2
				c1.5,0,3.5-0.9,3.5-4V84.7h4.6V102.1z"/>
			<path class="st1" d="M300.7,84.7v16.5c0,3-0.2,8-8.8,8c-3.6,0-7.4-1.5-7.6-5.2h5c0.2,0.9,0.6,1.8,3.2,1.8c2.5,0,3.6-1.2,3.6-4
				v-2.1l-0.1-0.1c-0.8,1.3-1.9,2.6-4.6,2.6c-4.2,0-7.5-2.9-7.5-9c0-6,3.4-9,7.2-9c3.2,0,4.6,1.9,5.1,3h0.1v-2.6H300.7z M292.2,98.3
				c3.1,0,3.9-2.7,3.9-5c0-2.8-1.4-5.1-3.9-5.1c-1.7,0-3.6,1.2-3.6,5.3C288.6,95.7,289.5,98.3,292.2,98.3z"/>
			<path class="st1" d="M320.4,102.1H316v-2.5H316c-1,1.9-2.9,2.9-5.3,2.9c-3.4,0-5.9-2-5.9-6.4V84.7h4.6v10.8c0,2.7,1.6,3.2,3,3.2
				c1.5,0,3.5-0.9,3.5-4V84.7h4.6V102.1z"/>
			<path class="st1" d="M334.5,90c-0.2-1.1-0.6-2.3-3.1-2.3c-2.5,0-2.8,1-2.8,1.7c0,2.8,10.9,0.8,10.9,7.2c0,5.1-4.9,6-7.6,6
				c-4,0-8.3-1.4-8.4-6h4.7c0,1.5,0.9,2.6,3.8,2.6c2.4,0,2.9-1.1,2.9-1.8c0-2.9-10.8-0.7-10.8-7.2c0-2.6,1.6-5.8,7-5.8
				c3.4,0,7.5,0.9,7.8,5.8H334.5z"/>
			<path class="st1" d="M348,84.7h2.8V88H348v9.5c0,1,0,1.4,1.9,1.4c0.3,0,0.6,0,1-0.1v3.5c-0.7,0-1.4,0.1-2.2,0.1h-0.6
				c-4,0-4.7-1.5-4.7-3.8V88h-2.4v-3.3h2.4V80h4.6V84.7z"/>
			<path class="st1" d="M361.9,87.1c0-7.6,5.5-8.2,7.6-8.2c4.5,0,8,2.6,8,7.3c0,4-2.6,6-4.8,7.6c-3.1,2.2-4.7,3.2-5.2,4.3h10.1v4.1
				h-15.9c0.2-2.7,0.4-5.6,5.4-9.2c4.2-3,5.9-4.2,5.9-6.8c0-1.5-1-3.3-3.2-3.3c-3.2,0-3.3,2.7-3.3,4.4H361.9z"/>
			<path class="st1" d="M388.1,78.9c5.5,0,8.1,3.8,8.1,11.9c0,8.2-2.6,12-8.1,12s-8.1-3.8-8.1-12C380,82.6,382.6,78.9,388.1,78.9z
				 M388.1,99.1c2.6,0,3.3-2.3,3.3-8.3s-0.7-8.3-3.3-8.3c-2.6,0-3.3,2.3-3.3,8.3S385.5,99.1,388.1,99.1z"/>
			<path class="st1" d="M398.3,87.1c0-7.6,5.5-8.2,7.6-8.2c4.5,0,8,2.6,8,7.3c0,4-2.6,6-4.8,7.6c-3.1,2.2-4.7,3.2-5.2,4.3h10.1v4.1
				H398c0.2-2.7,0.4-5.6,5.4-9.2c4.2-3,5.9-4.2,5.9-6.8c0-1.5-1-3.3-3.2-3.3c-3.2,0-3.3,2.7-3.3,4.4H398.3z"/>
			<path class="st1" d="M422.4,88.7h0.7c1.4,0,3.9-0.1,3.9-3.1c0-0.9-0.4-3-2.9-3c-3.1,0-3.1,3-3.1,3.8h-4.3c0-4.4,2.5-7.5,7.7-7.5
				c3.1,0,7.2,1.6,7.2,6.5c0,2.4-1.5,3.8-2.8,4.4v0.1c0.8,0.2,3.5,1.4,3.5,5.4c0,4.4-3.2,7.5-7.9,7.5c-2.2,0-8.1-0.5-8.1-7.8h4.5
				l0,0c0,1.2,0.3,4.1,3.4,4.1c1.8,0,3.4-1.2,3.4-3.8c0-3.2-3.1-3.3-5.2-3.3V88.7z"/>
		</g>
		<g class="st0">
			<path class="st2" d="M11.8,22.4h14.5V7.1h7.7v35.8h-7.7V28.5H11.8v14.5H4.2V13.1l-0.5-6h8.2V22.4z"/>
			<path class="st2" d="M63.2,34.7c0.1,0.9,0.4,1.6,0.7,2.1c0.4,0.5,0.9,0.7,1.5,0.7c0.7,0,1.5-0.2,2.3-0.5c0.8-0.3,1.4-0.7,1.8-1
				l1.6,3.7c-1,1.1-2.2,2.1-3.6,2.8c-1.4,0.7-2.8,1.1-4.3,1.1c-3.4,0-5.7-1.5-6.8-4.6c-0.9,1.3-1.9,2.4-3.1,3.2
				c-1.2,0.8-2.6,1.3-4.3,1.3c-0.2,0-0.5,0-0.9,0c-3.7,0-6.2-1.4-7.5-4.3c-1.3-2.9-2-6.2-2-9.9c0-4.3,0.8-7.6,2.4-10.1
				c1.6-2.5,4.3-3.7,8-3.7c1.2,0,2.4,0.3,3.6,0.8c1.2,0.5,2.2,1.1,2.9,1.8v-2.3l7.4,0.7V31C63,32.5,63.1,33.7,63.2,34.7z M51,21.7
				c-1.2,0-2.2,0.5-3,1.4c-0.7,0.9-1.2,2-1.5,3.2S46,28.7,46,29.8c0,2,0.4,3.7,1.1,5.2s1.8,2.2,3.2,2.4l0.4,0c1,0,1.9-0.3,2.8-0.9
				c0.9-0.6,1.6-1.4,2.2-2.2V23.8C54.3,22.4,52.7,21.7,51,21.7z"/>
			<path class="st2" d="M71.9,16.6l7.3-0.7v3.3c0.2-0.4,0.7-0.9,1.3-1.4c0.6-0.6,1.5-1.1,2.4-1.5s2.1-0.7,3.3-0.7
				c4,0,6.6,1.4,7.9,4.2s2,6.1,2,10c0,4.2-0.8,7.6-2.4,10.1c-1.6,2.5-4.3,3.7-8,3.7c-1.2,0-2.4-0.2-3.6-0.6s-2.2-0.9-2.9-1.5V53
				l-7.3-0.5V16.6z M80,36.6c0.5,0.2,1.1,0.4,1.8,0.6c0.7,0.2,1.4,0.3,2.2,0.3c1.2,0,2.2-0.4,3-1.3c0.7-0.9,1.2-1.9,1.5-3.2
				c0.3-1.2,0.4-2.5,0.4-3.7c0-1.5-0.2-2.9-0.6-4c-0.4-1.1-0.9-2-1.6-2.6s-1.4-0.9-2.2-0.9c-1.3,0-2.4,0.3-3.3,1
				c-0.8,0.7-1.5,1.3-1.9,2v11.6C79.2,36.3,79.5,36.4,80,36.6z"/>
			<path class="st2" d="M99.9,16.6l7.3-0.7v3.3c0.2-0.4,0.7-0.9,1.3-1.4c0.6-0.6,1.5-1.1,2.4-1.5s2.1-0.7,3.3-0.7
				c4,0,6.6,1.4,7.9,4.2s2,6.1,2,10c0,4.2-0.8,7.6-2.4,10.1c-1.6,2.5-4.3,3.7-8,3.7c-1.2,0-2.4-0.2-3.6-0.6s-2.2-0.9-2.9-1.5V53
				l-7.3-0.5V16.6z M108,36.6c0.5,0.2,1.1,0.4,1.8,0.6c0.7,0.2,1.4,0.3,2.2,0.3c1.2,0,2.2-0.4,3-1.3c0.7-0.9,1.2-1.9,1.5-3.2
				c0.3-1.2,0.4-2.5,0.4-3.7c0-1.5-0.2-2.9-0.6-4c-0.4-1.1-0.9-2-1.6-2.6s-1.4-0.9-2.2-0.9c-1.3,0-2.4,0.3-3.3,1
				c-0.8,0.7-1.5,1.3-1.9,2v11.6C107.2,36.3,107.5,36.4,108,36.6z"/>
			<path class="st2" d="M134.7,31.1c0,1.6,0.1,2.9,0.4,3.8c0.3,0.9,0.7,1.6,1.3,2s1.5,0.6,2.6,0.6c0.9,0,1.7-0.2,2.4-0.5
				c0.7-0.3,1.4-0.7,1.8-1.1c0.5-0.4,0.7-0.7,0.7-0.7V16.2h7.3V41c0,2.2-0.4,4.3-1.2,6.2c-0.8,1.9-2,3.5-3.8,4.8
				c-1.7,1.2-3.9,1.8-6.5,1.8c-0.4,0-0.9,0-1.7-0.1c-1.2-0.1-2.3-0.3-3.4-0.5c-1.1-0.3-1.9-0.5-2.4-0.8v-4.9
				c0.4,0.3,1.2,0.5,2.2,0.7c1,0.2,2,0.3,2.9,0.3c1.8,0,3.4-0.5,4.6-1.5c1.2-1,1.9-2.7,1.9-5.1l0.1-1.4c-0.8,0.8-1.9,1.6-3.2,2.2
				c-1.3,0.6-2.8,1-4.6,1c-3.2,0-5.4-0.9-6.8-2.8c-1.4-1.8-2.1-4.6-2.1-8.2V15.9l7.4,0.7V31.1z"/>
			<path class="st2" d="M178.4,7.1v35.8h-7.6V13.1l-0.5-6H178.4z"/>
			<path class="st2" d="M200.1,23.3c-0.6-1.1-1.8-1.7-3.4-1.7c-0.9,0-1.7,0.2-2.4,0.5c-0.7,0.3-1.4,0.7-1.8,1.1s-0.7,0.7-0.7,0.7
				v18.9h-7.3V16.6l7.3-0.7v3.3c0-0.1,0.4-0.5,1.2-1.1s1.8-1.2,2.9-1.7s2.4-0.8,3.7-0.8c3.2,0,5.4,0.9,6.8,2.8
				c1.4,1.8,2.1,4.6,2.1,8.2v5c0,1.5,0.1,2.7,0.2,3.5c0.1,0.8,0.4,1.4,0.7,1.8c0.3,0.4,0.8,0.6,1.5,0.6c0.7,0,1.3-0.2,1.8-0.5
				s1-0.6,1.3-0.9l1.6,3.7c0,0.1-0.3,0.4-1,1.1c-0.7,0.7-1.5,1.3-2.6,1.8c-1,0.6-2.2,0.8-3.4,0.8c-2.8,0-4.8-0.9-5.8-2.7
				c-1.1-1.8-1.6-4.1-1.6-7v-5.4C201.1,26.2,200.7,24.4,200.1,23.3z"/>
			<path class="st2" d="M224.3,43.6c-3.7,0-6.2-1.4-7.5-4.3c-1.3-2.9-2-6.2-2-9.9c0-4.3,0.8-7.6,2.4-10.1c1.6-2.5,4.3-3.7,8-3.7
				c1.2,0,2.4,0.3,3.5,0.8c1.2,0.5,2.2,1.1,3,1.8v-11l7.4-0.7v25c0,2.1,0.2,3.6,0.5,4.5c0.3,0.9,1,1.4,1.9,1.4
				c0.7,0,1.5-0.2,2.4-0.6s1.5-0.7,1.9-1.1l1.6,3.7c-1,1.1-2.2,2.1-3.7,2.9c-1.5,0.8-3,1.2-4.4,1.2c-3.5,0-5.7-1.5-6.8-4.6
				c-0.9,1.3-1.9,2.4-3.1,3.2c-1.2,0.8-2.7,1.3-4.3,1.3C225.1,43.6,224.8,43.6,224.3,43.6z M227.2,21.7c-1.2,0-2.2,0.5-3,1.4
				c-0.7,0.9-1.2,2-1.5,3.2s-0.4,2.4-0.4,3.6c0,2,0.4,3.7,1.1,5.1c0.7,1.4,1.8,2.2,3.2,2.4l0.4,0c1,0,1.9-0.3,2.8-0.9
				c0.9-0.6,1.6-1.4,2.1-2.2V23.8C230.5,22.4,228.9,21.7,227.2,21.7z"/>
			<path class="st2" d="M255.4,36.4c1,0.8,2.4,1.2,4.3,1.2c0.8,0,1.5,0,2.2-0.1c1.4-0.2,2.9-0.5,4.5-1c1.6-0.5,2.9-1,3.9-1.4
				l1.1,4.5c-0.5,0.5-1.5,1-2.7,1.7c-1.3,0.6-2.8,1.2-4.5,1.6c-1.7,0.5-3.4,0.7-5.1,0.7c-3.1,0-5.6-0.5-7.5-1.6
				c-1.9-1-3.2-2.6-4-4.7c-0.8-2.1-1.2-4.8-1.2-8.2c0-3.1,0.4-5.6,1.2-7.6c0.8-2,2.2-3.4,4.1-4.4c1.9-1,4.4-1.5,7.5-1.5
				c3.6,0,6.4,0.8,8.5,2.4s3.3,4,3.4,7.4c0,0.4,0.1,1,0.1,1.7c0,0.9,0,1.8-0.1,2.6c-0.1,0.8-0.1,1.3-0.2,1.5l-17,1
				C253.9,34.2,254.4,35.7,255.4,36.4z M264,25.5c0-2.8-1.6-4.2-4.9-4.2c-1.6,0-2.9,0.4-3.7,1.3c-0.9,0.9-1.4,2.2-1.5,4l10.1-0.4
				C264,26.1,264,25.8,264,25.5z"/>
			<path class="st2" d="M275.6,16.6l7.3-0.7v3.3c0.2-0.4,0.7-0.9,1.3-1.4c0.6-0.6,1.5-1.1,2.4-1.5s2.1-0.7,3.3-0.7
				c4,0,6.6,1.4,7.9,4.2s2,6.1,2,10c0,4.2-0.8,7.6-2.4,10.1c-1.6,2.5-4.3,3.7-8,3.7c-1.2,0-2.4-0.2-3.6-0.6s-2.2-0.9-2.9-1.5V53
				l-7.3-0.5V16.6z M283.7,36.6c0.5,0.2,1.1,0.4,1.8,0.6c0.7,0.2,1.4,0.3,2.2,0.3c1.2,0,2.2-0.4,3-1.3c0.7-0.9,1.2-1.9,1.5-3.2
				c0.3-1.2,0.4-2.5,0.4-3.7c0-1.5-0.2-2.9-0.6-4c-0.4-1.1-0.9-2-1.6-2.6s-1.4-0.9-2.2-0.9c-1.3,0-2.4,0.3-3.3,1
				c-0.8,0.7-1.5,1.3-1.9,2v11.6C283,36.3,283.2,36.4,283.7,36.6z"/>
			<path class="st2" d="M311.5,36.4c1,0.8,2.4,1.2,4.3,1.2c0.8,0,1.5,0,2.2-0.1c1.4-0.2,2.9-0.5,4.5-1c1.6-0.5,2.9-1,3.9-1.4
				l1.1,4.5c-0.5,0.5-1.5,1-2.7,1.7c-1.3,0.6-2.8,1.2-4.5,1.6c-1.7,0.5-3.4,0.7-5.1,0.7c-3.1,0-5.6-0.5-7.5-1.6
				c-1.9-1-3.2-2.6-4-4.7c-0.8-2.1-1.2-4.8-1.2-8.2c0-3.1,0.4-5.6,1.2-7.6c0.8-2,2.2-3.4,4.1-4.4c1.9-1,4.4-1.5,7.5-1.5
				c3.6,0,6.4,0.8,8.5,2.4s3.3,4,3.4,7.4c0,0.4,0.1,1,0.1,1.7c0,0.9,0,1.8-0.1,2.6c-0.1,0.8-0.1,1.3-0.2,1.5l-17,1
				C310,34.2,310.4,35.7,311.5,36.4z M320,25.5c0-2.8-1.6-4.2-4.9-4.2c-1.6,0-2.9,0.4-3.7,1.3c-0.9,0.9-1.4,2.2-1.5,4l10.1-0.4
				C320,26.1,320,25.8,320,25.5z"/>
			<path class="st2" d="M347.4,23.3c-0.6-1.1-1.8-1.7-3.4-1.7c-0.9,0-1.7,0.2-2.4,0.5c-0.7,0.3-1.4,0.7-1.8,1.1
				c-0.5,0.4-0.7,0.7-0.7,0.7v18.9h-7.3V16.6l7.3-0.7v3.3c0-0.1,0.4-0.5,1.2-1.1c0.8-0.6,1.8-1.2,2.9-1.7s2.4-0.8,3.7-0.8
				c3.2,0,5.4,0.9,6.8,2.8c1.4,1.8,2.1,4.6,2.1,8.2v5c0,1.5,0.1,2.7,0.2,3.5c0.1,0.8,0.4,1.4,0.7,1.8c0.3,0.4,0.8,0.6,1.5,0.6
				c0.7,0,1.3-0.2,1.8-0.5c0.6-0.3,1-0.6,1.3-0.9l1.6,3.7c0,0.1-0.3,0.4-1,1.1c-0.7,0.7-1.5,1.3-2.6,1.8c-1,0.6-2.2,0.8-3.4,0.8
				c-2.8,0-4.8-0.9-5.8-2.7c-1-1.8-1.6-4.1-1.6-7v-5.4C348.4,26.2,348.1,24.4,347.4,23.3z"/>
			<path class="st2" d="M371.7,43.6c-3.7,0-6.2-1.4-7.5-4.3s-2-6.2-2-9.9c0-4.3,0.8-7.6,2.4-10.1c1.6-2.5,4.3-3.7,8-3.7
				c1.2,0,2.4,0.3,3.5,0.8c1.2,0.5,2.2,1.1,3,1.8v-11l7.4-0.7v25c0,2.1,0.2,3.6,0.5,4.5c0.3,0.9,1,1.4,1.9,1.4
				c0.7,0,1.5-0.2,2.4-0.6s1.5-0.7,1.9-1.1l1.6,3.7c-1,1.1-2.2,2.1-3.7,2.9s-3,1.2-4.4,1.2c-3.5,0-5.7-1.5-6.8-4.6
				c-0.9,1.3-1.9,2.4-3.1,3.2c-1.2,0.8-2.7,1.3-4.3,1.3C372.4,43.6,372.1,43.6,371.7,43.6z M374.5,21.7c-1.2,0-2.2,0.5-3,1.4
				c-0.7,0.9-1.2,2-1.5,3.2s-0.4,2.4-0.4,3.6c0,2,0.4,3.7,1.1,5.1c0.7,1.4,1.8,2.2,3.2,2.4l0.4,0c1,0,1.9-0.3,2.8-0.9
				c0.9-0.6,1.6-1.4,2.1-2.2V23.8C377.8,22.4,376.3,21.7,374.5,21.7z"/>
			<path class="st2" d="M402.7,36.4c1,0.8,2.4,1.2,4.3,1.2c0.8,0,1.5,0,2.2-0.1c1.4-0.2,2.9-0.5,4.5-1c1.6-0.5,2.9-1,3.9-1.4
				l1.1,4.5c-0.5,0.5-1.5,1-2.7,1.7c-1.3,0.6-2.8,1.2-4.5,1.6c-1.7,0.5-3.4,0.7-5.1,0.7c-3.1,0-5.6-0.5-7.5-1.6
				c-1.9-1-3.2-2.6-4-4.7c-0.8-2.1-1.2-4.8-1.2-8.2c0-3.1,0.4-5.6,1.2-7.6c0.8-2,2.2-3.4,4.1-4.4c1.9-1,4.4-1.5,7.5-1.5
				c3.6,0,6.4,0.8,8.5,2.4s3.3,4,3.4,7.4c0,0.4,0.1,1,0.1,1.7c0,0.9,0,1.8-0.1,2.6c-0.1,0.8-0.1,1.3-0.2,1.5l-17,1
				C401.2,34.2,401.7,35.7,402.7,36.4z M411.3,25.5c0-2.8-1.6-4.2-4.9-4.2c-1.6,0-2.9,0.4-3.7,1.3c-0.9,0.9-1.4,2.2-1.5,4l10.1-0.4
				C411.3,26.1,411.3,25.8,411.3,25.5z"/>
			<path class="st2" d="M438.7,23.3c-0.6-1.1-1.8-1.7-3.4-1.7c-0.9,0-1.7,0.2-2.4,0.5c-0.7,0.3-1.4,0.7-1.8,1.1
				c-0.5,0.4-0.7,0.7-0.7,0.7v18.9H423V16.6l7.3-0.7v3.3c0-0.1,0.4-0.5,1.2-1.1c0.8-0.6,1.8-1.2,2.9-1.7s2.4-0.8,3.7-0.8
				c3.2,0,5.4,0.9,6.8,2.8c1.4,1.8,2.1,4.6,2.1,8.2v5c0,1.5,0.1,2.7,0.2,3.5c0.1,0.8,0.4,1.4,0.7,1.8c0.3,0.4,0.8,0.6,1.5,0.6
				c0.7,0,1.3-0.2,1.8-0.5c0.6-0.3,1-0.6,1.3-0.9l1.6,3.7c0,0.1-0.3,0.4-1,1.1c-0.7,0.7-1.5,1.3-2.6,1.8c-1,0.6-2.2,0.8-3.4,0.8
				c-2.8,0-4.8-0.9-5.8-2.7c-1-1.8-1.6-4.1-1.6-7v-5.4C439.6,26.2,439.3,24.4,438.7,23.3z"/>
			<path class="st2" d="M469.5,23.1c-0.8-1-2-1.4-3.5-1.4c-1.4,0-2.5,0.4-3.3,1.1s-1.3,1.7-1.5,2.8c-0.2,1.1-0.4,2.4-0.4,3.9
				c0,2.4,0.4,4.3,1.1,5.8c0.7,1.4,2.1,2.2,4,2.2c1.7,0,2.9-0.5,3.7-1.5s1.2-2.4,1.4-4.1l7.3,0c0,7.8-4.1,11.7-12.4,11.7
				c-2.2,0-4.2-0.3-6-0.8s-3.3-1.8-4.6-3.7c-1.3-1.9-2-4.7-2-8.5v-2.1c0-3.5,0.6-6.1,1.7-8s2.6-3.2,4.5-3.9c1.8-0.7,3.9-1,6.3-1
				c3.3,0,6.2,0.8,8.7,2.4c2.4,1.6,3.7,4.6,3.7,9.1H471C470.8,25.4,470.3,24.1,469.5,23.1z"/>
			<path class="st2" d="M490.4,36.4c1,0.8,2.4,1.2,4.3,1.2c0.8,0,1.5,0,2.2-0.1c1.4-0.2,2.9-0.5,4.5-1c1.6-0.5,2.9-1,3.9-1.4
				l1.1,4.5c-0.5,0.5-1.5,1-2.7,1.7c-1.3,0.6-2.8,1.2-4.5,1.6c-1.7,0.5-3.4,0.7-5.1,0.7c-3.1,0-5.6-0.5-7.5-1.6
				c-1.9-1-3.2-2.6-4-4.7c-0.8-2.1-1.2-4.8-1.2-8.2c0-3.1,0.4-5.6,1.2-7.6c0.8-2,2.2-3.4,4.1-4.4c1.9-1,4.4-1.5,7.5-1.5
				c3.6,0,6.4,0.8,8.5,2.4s3.3,4,3.4,7.4c0,0.4,0.1,1,0.1,1.7c0,0.9,0,1.8-0.1,2.6c-0.1,0.8-0.1,1.3-0.2,1.5l-17,1
				C488.9,34.2,489.4,35.7,490.4,36.4z M499,25.5c0-2.8-1.6-4.2-4.9-4.2c-1.6,0-2.9,0.4-3.7,1.3c-0.9,0.9-1.4,2.2-1.5,4l10.1-0.4
				C499,26.1,499,25.8,499,25.5z"/>
			<path class="st2" d="M549.4,9.7c2.6,1.7,4.2,4.4,4.9,7.9c0.2,1,0.4,2.1,0.4,3.4c0.1,1.3,0.1,2.9,0.1,4.9c0,2.7-0.2,5.1-0.7,7.3
				c-0.5,2.2-1.4,4-2.7,5.3c-1.4,1.6-3.2,2.7-5.5,3.4c-2.2,0.7-4.7,1-7.4,1h-13.4V13.1l-0.5-6h13.9C543.2,7.1,546.8,8,549.4,9.7z
				 M532.9,36.9h5.8c3.8,0,6.3-1.4,7.7-4.2c0.4-0.8,0.7-1.8,0.9-3s0.3-2.5,0.3-4v-1.4c0-1.7-0.1-3.1-0.2-4.1
				c-0.3-2.5-1.3-4.3-2.9-5.5s-3.5-1.7-5.7-1.7h-5.9V36.9z"/>
			<path class="st2" d="M582.7,34.7c0.1,0.9,0.4,1.6,0.7,2.1c0.4,0.5,0.9,0.7,1.5,0.7c0.7,0,1.5-0.2,2.3-0.5c0.8-0.3,1.4-0.7,1.8-1
				l1.6,3.7c-1,1.1-2.2,2.1-3.6,2.8c-1.4,0.7-2.8,1.1-4.3,1.1c-3.4,0-5.7-1.5-6.8-4.6c-0.9,1.3-1.9,2.4-3.1,3.2
				c-1.2,0.8-2.6,1.3-4.3,1.3c-0.2,0-0.5,0-0.9,0c-3.7,0-6.2-1.4-7.5-4.3s-2-6.2-2-9.9c0-4.3,0.8-7.6,2.4-10.1
				c1.6-2.5,4.3-3.7,8-3.7c1.2,0,2.4,0.3,3.6,0.8c1.2,0.5,2.2,1.1,2.9,1.8v-2.3l7.4,0.7V31C582.5,32.5,582.6,33.7,582.7,34.7z
				 M570.5,21.7c-1.2,0-2.2,0.5-3,1.4c-0.7,0.9-1.2,2-1.5,3.2s-0.4,2.4-0.4,3.6c0,2,0.4,3.7,1.1,5.2s1.8,2.2,3.2,2.4l0.4,0
				c1,0,1.9-0.3,2.8-0.9c0.9-0.6,1.6-1.4,2.2-2.2V23.8C573.8,22.4,572.2,21.7,570.5,21.7z"/>
			<path class="st2" d="M598.1,31.1c0,1.6,0.1,2.9,0.4,3.8c0.3,0.9,0.7,1.6,1.3,2c0.6,0.4,1.5,0.6,2.6,0.6c0.9,0,1.7-0.2,2.4-0.5
				c0.7-0.3,1.3-0.7,1.8-1.1c0.5-0.4,0.7-0.7,0.7-0.7V16.2h7.3V41c0,2.2-0.4,4.3-1.2,6.2c-0.8,1.9-2,3.5-3.8,4.8
				c-1.7,1.2-3.9,1.8-6.5,1.8c-0.4,0-0.9,0-1.7-0.1c-1.2-0.1-2.3-0.3-3.4-0.5c-1.1-0.3-1.9-0.5-2.4-0.8v-4.9
				c0.4,0.3,1.2,0.5,2.2,0.7c1,0.2,2,0.3,2.9,0.3c1.8,0,3.4-0.5,4.6-1.5c1.2-1,1.9-2.7,1.9-5.1l0.1-1.4c-0.8,0.8-1.9,1.6-3.2,2.2
				c-1.3,0.6-2.8,1-4.6,1c-3.2,0-5.4-0.9-6.8-2.8c-1.4-1.8-2.1-4.6-2.1-8.2V15.9l7.4,0.7V31.1z"/>
		</g>
	</g>
</g>
</svg>
