<?xml version="1.0" encoding="utf-8"?>
<!-- Generator: Adobe Illustrator 24.3.0, SVG Export Plug-In . SVG Version: 6.00 Build 0)  -->
<svg version="1.1" id="Layer_1" xmlns="http://www.w3.org/2000/svg" xmlns:xlink="http://www.w3.org/1999/xlink" x="0px" y="0px"
	 viewBox="0 0 514.8 209.3" style="enable-background:new 0 0 514.8 209.3;" xml:space="preserve">
<style type="text/css">
	.st0{enable-background:new    ;}
	.st1{fill:#982887;}
	.st2{fill:#007DC4;}
</style>
<g id="Layer_2_1_">
	<g id="Layer_1-2">
		<g class="st0">
			<path class="st1" d="M58.1,178.5l14-36.4h6.9l12.1,30.8l2.9,5.6h-8.5l-2.1-5.4l-14.1,0.1l-0.4-2.4l-3,7.8H58.1z M76.4,155.1
				l-0.8-3.5h-0.1l-0.8,3.5l-4.4,11.3l10.5,0L76.4,155.1z"/>
			<path class="st1" d="M110.9,158.3c-0.8-1-2-1.5-3.6-1.5c-1.5,0-2.6,0.4-3.4,1.2c-0.8,0.8-1.3,1.7-1.5,2.9c-0.2,1.1-0.4,2.5-0.4,4
				c0,2.5,0.4,4.4,1.1,5.9c0.8,1.5,2.1,2.2,4.1,2.2c1.7,0,3-0.5,3.8-1.6c0.8-1,1.3-2.4,1.4-4.1l7.4,0c0,7.9-4.2,11.9-12.6,11.9
				c-2.2,0-4.2-0.3-6-0.8c-1.8-0.6-3.4-1.8-4.7-3.7c-1.3-1.9-2-4.8-2-8.6v-2.2c0-3.5,0.6-6.2,1.8-8.2s2.7-3.2,4.5-3.9s4-1,6.4-1
				c3.4,0,6.3,0.8,8.8,2.4c2.5,1.6,3.7,4.7,3.7,9.2h-7.4C112.3,160.7,111.7,159.3,110.9,158.3z"/>
			<path class="st1" d="M132.3,170c0.1,0.9,0.4,1.7,0.7,2.2c0.4,0.5,0.9,0.7,1.6,0.7c0.7,0,1.5-0.2,2.3-0.5c0.8-0.4,1.4-0.7,1.8-1
				l1.6,3.7c-1,1.2-2.2,2.1-3.6,2.9c-1.4,0.7-2.9,1.1-4.3,1.1c-2.1,0-3.7-0.5-4.9-1.6c-1.1-1-1.9-2.3-2.3-3.9
				c-0.4-1.6-0.6-3.4-0.6-5.4v-11.3H122v-5.6h3.2l6.9-0.7v15.7C132.1,167.8,132.2,169.1,132.3,170z M125,141.9
				c0.8-0.6,1.9-0.9,3.3-0.9c1.4,0,2.5,0.3,3.3,0.9c0.8,0.6,1.2,1.4,1.2,2.5c0,1-0.4,1.8-1.2,2.4c-0.8,0.6-1.9,0.9-3.3,0.9
				c-1.4,0-2.5-0.3-3.3-0.9c-0.8-0.6-1.2-1.4-1.2-2.4C123.8,143.3,124.2,142.5,125,141.9z"/>
			<path class="st1" d="M149.6,179.1c-3.7,0-6.2-1.5-7.6-4.4s-2-6.3-2-10c0-4.3,0.8-7.7,2.4-10.3c1.6-2.5,4.3-3.8,8.1-3.8
				c1.2,0,2.4,0.3,3.6,0.8s2.2,1.1,3,1.9v-11.2l7.5-0.7v25.4c0,2.1,0.2,3.6,0.5,4.6c0.3,1,1,1.4,1.9,1.4c0.7,0,1.5-0.2,2.5-0.6
				c0.9-0.4,1.6-0.8,1.9-1.1l1.6,3.7c-1,1.2-2.2,2.1-3.8,2.9c-1.5,0.8-3,1.2-4.4,1.2c-3.5,0-5.8-1.6-6.9-4.7
				c-0.9,1.4-1.9,2.5-3.2,3.3c-1.2,0.8-2.7,1.3-4.3,1.4C150.3,179.1,150,179.1,149.6,179.1z M152.5,156.9c-1.3,0-2.3,0.5-3,1.4
				c-0.7,0.9-1.3,2-1.5,3.3c-0.3,1.3-0.4,2.5-0.4,3.6c0,2,0.4,3.8,1.1,5.2c0.7,1.4,1.8,2.2,3.2,2.4l0.4,0c1,0,1.9-0.3,2.8-0.9
				c0.9-0.6,1.6-1.4,2.2-2.3v-10.6C155.8,157.6,154.2,156.9,152.5,156.9z"/>
			<path class="st1" d="M181.2,170c0.1,0.9,0.4,1.7,0.7,2.2c0.4,0.5,0.9,0.7,1.6,0.7c0.7,0,1.5-0.2,2.3-0.5c0.8-0.4,1.4-0.7,1.8-1
				l1.6,3.7c-1,1.2-2.2,2.1-3.6,2.9c-1.4,0.7-2.9,1.1-4.3,1.1c-2.1,0-3.7-0.5-4.9-1.6c-1.1-1-1.9-2.3-2.3-3.9
				c-0.4-1.6-0.6-3.4-0.6-5.4v-11.3h-2.6v-5.6h3.2l6.9-0.7v15.7C181,167.8,181.1,169.1,181.2,170z M173.9,141.9
				c0.8-0.6,1.9-0.9,3.3-0.9c1.4,0,2.5,0.3,3.3,0.9c0.8,0.6,1.2,1.4,1.2,2.5c0,1-0.4,1.8-1.2,2.4c-0.8,0.6-1.9,0.9-3.3,0.9
				c-1.4,0-2.5-0.3-3.3-0.9c-0.8-0.6-1.2-1.4-1.2-2.4C172.7,143.3,173.1,142.5,173.9,141.9z"/>
			<path class="st1" d="M197.6,166.3c0,1.6,0.1,2.8,0.2,3.8c0.1,0.9,0.4,1.7,0.7,2.2c0.4,0.5,0.9,0.7,1.6,0.7c0.7,0,1.5-0.2,2.4-0.5
				c0.8-0.4,1.4-0.7,1.8-1l1.6,3.7c-1,1.2-2.2,2.1-3.6,2.9c-1.4,0.7-2.9,1.1-4.3,1.1c-2.9,0-4.9-0.9-6-2.8s-1.7-4.2-1.7-7.1v-0.7
				l0-11.6h-2.9v-5.6h2.9v-7.5l7.5-0.4v7.9h5.7l-0.7,5.6h-5l0,9.1V166.3z"/>
			<path class="st1" d="M213.2,166.4c0,1.7,0.1,3,0.4,3.9c0.3,0.9,0.7,1.6,1.3,2c0.6,0.4,1.5,0.6,2.6,0.6c0.9,0,1.7-0.2,2.4-0.5
				c0.7-0.4,1.4-0.7,1.9-1.2c0.5-0.4,0.7-0.7,0.7-0.7v-19.2h7.5v25.1c0,2.2-0.4,4.3-1.2,6.3c-0.8,2-2.1,3.6-3.8,4.8
				c-1.7,1.2-3.9,1.9-6.6,1.9c-0.4,0-1,0-1.8-0.1c-1.2-0.1-2.3-0.3-3.5-0.6c-1.1-0.3-1.9-0.5-2.4-0.8v-5c0.4,0.3,1.2,0.5,2.2,0.7
				s2,0.3,2.9,0.3c1.9,0,3.4-0.5,4.7-1.6s1.9-2.8,1.9-5.2l0.1-1.4c-0.8,0.8-1.9,1.6-3.2,2.2c-1.3,0.6-2.9,1-4.7,1
				c-3.2,0-5.5-0.9-6.9-2.8c-1.4-1.9-2.1-4.6-2.1-8.3v-17l7.5,0.7V166.4z"/>
			<path class="st1" d="M275.8,142.1l-0.6,6.1h-17.6v9.8h13.6l-0.6,6.1h-13.1v14.4h-7.7v-30.3l-0.5-6.1H275.8z"/>
		</g>
		<g class="st0">
			<path class="st1" d="M294.2,156.6c-0.6-0.2-1.3-0.2-2.1-0.2c-1.1,0-2.1,0.3-3.2,0.8c-1,0.5-1.9,1.2-2.6,2.1c-0.7,0.9-1,1.8-1,2.8
				v16.4h-7.5v-26.7l7.5-0.7v3.9c0.8-1.2,1.9-2.2,3.3-3s3-1.2,4.8-1.2c0.8,0,1.6,0.1,2.3,0.3s1.2,0.4,1.4,0.5l-1,5.7
				C295.4,156.9,294.8,156.7,294.2,156.6z"/>
		</g>
		<g class="st0">
			<path class="st1" d="M305.7,171.9c1,0.8,2.5,1.2,4.4,1.2c0.8,0,1.5,0,2.2-0.1c1.4-0.2,3-0.5,4.6-1c1.6-0.5,2.9-1,4-1.4l1.1,4.6
				c-0.5,0.5-1.5,1.1-2.8,1.7c-1.3,0.6-2.8,1.2-4.5,1.6c-1.7,0.5-3.4,0.7-5.2,0.7c-3.2,0-5.7-0.5-7.6-1.6c-1.9-1.1-3.3-2.7-4.1-4.8
				c-0.8-2.1-1.3-4.9-1.3-8.3c0-3.1,0.4-5.7,1.3-7.7c0.8-2,2.2-3.5,4.1-4.5c1.9-1,4.5-1.5,7.7-1.5c3.6,0,6.5,0.8,8.6,2.4
				c2.2,1.6,3.3,4.1,3.5,7.5c0,0.4,0.1,1,0.1,1.8c0,1,0,1.8-0.1,2.6s-0.1,1.3-0.2,1.5l-17.3,1C304.2,169.6,304.7,171.1,305.7,171.9z
				 M314.5,160.8c0-2.8-1.7-4.2-5-4.2c-1.6,0-2.9,0.4-3.8,1.3c-0.9,0.9-1.4,2.2-1.5,4l10.2-0.4C314.4,161.3,314.5,161.1,314.5,160.8
				z"/>
			<path class="st1" d="M334.2,171.9c1,0.8,2.5,1.2,4.4,1.2c0.8,0,1.5,0,2.2-0.1c1.4-0.2,3-0.5,4.6-1c1.6-0.5,2.9-1,4-1.4l1.1,4.6
				c-0.5,0.5-1.5,1.1-2.8,1.7c-1.3,0.6-2.8,1.2-4.5,1.6c-1.7,0.5-3.4,0.7-5.2,0.7c-3.2,0-5.7-0.5-7.6-1.6c-1.9-1.1-3.3-2.7-4.1-4.8
				c-0.8-2.1-1.3-4.9-1.3-8.3c0-3.1,0.4-5.7,1.3-7.7c0.8-2,2.2-3.5,4.1-4.5c1.9-1,4.5-1.5,7.7-1.5c3.6,0,6.5,0.8,8.6,2.4
				c2.2,1.6,3.3,4.1,3.5,7.5c0,0.4,0.1,1,0.1,1.8c0,1,0,1.8-0.1,2.6s-0.1,1.3-0.2,1.5l-17.3,1C332.7,169.6,333.2,171.1,334.2,171.9z
				 M342.9,160.8c0-2.8-1.7-4.2-5-4.2c-1.6,0-2.9,0.4-3.8,1.3c-0.9,0.9-1.4,2.2-1.5,4l10.2-0.4C342.9,161.3,342.9,161.1,342.9,160.8
				z"/>
			<path class="st1" d="M369.6,172.2v-30.2h7.7v30.3h15.9v6.1H369L369.6,172.2z"/>
			<path class="st1" d="M404.1,170c0.1,0.9,0.4,1.7,0.7,2.2c0.4,0.5,0.9,0.7,1.6,0.7c0.7,0,1.5-0.2,2.3-0.5c0.8-0.4,1.4-0.7,1.8-1
				l1.6,3.7c-1,1.2-2.2,2.1-3.6,2.9c-1.4,0.7-2.9,1.1-4.3,1.1c-2.1,0-3.7-0.5-4.9-1.6c-1.1-1-1.9-2.3-2.3-3.9
				c-0.4-1.6-0.6-3.4-0.6-5.4v-11.3h-2.6v-5.6h3.2l6.9-0.7v15.7C403.9,167.8,404,169.1,404.1,170z M396.8,141.9
				c0.8-0.6,1.9-0.9,3.3-0.9c1.4,0,2.5,0.3,3.3,0.9c0.8,0.6,1.2,1.4,1.2,2.5c0,1-0.4,1.8-1.2,2.4c-0.8,0.6-1.9,0.9-3.3,0.9
				c-1.4,0-2.5-0.3-3.3-0.9c-0.8-0.6-1.2-1.4-1.2-2.4C395.6,143.3,396,142.5,396.8,141.9z"/>
			<path class="st1" d="M413.3,156.9H410v-5.6h3.3c0-2.8,0.2-5.1,0.5-6.9c0.3-1.8,1.1-3.3,2.3-4.5c1.2-1.2,3-1.8,5.4-1.8
				c1.7,0,3.2,0.3,4.4,0.8c1.2,0.5,2.4,1.2,3.4,1.9l-0.8,4.9c0,0-0.3-0.1-0.8-0.4c-0.5-0.2-1.1-0.5-1.8-0.7
				c-0.7-0.2-1.4-0.3-2.1-0.3c-1,0-1.7,0.4-2.3,1.1c-0.6,0.7-0.8,1.9-0.9,3.4v2.5h6.6l-0.6,5.6h-6l0,21.5h-7.5V156.9z"/>
			<path class="st1" d="M439.2,171.9c1,0.8,2.5,1.2,4.4,1.2c0.8,0,1.5,0,2.2-0.1c1.4-0.2,3-0.5,4.6-1c1.6-0.5,2.9-1,4-1.4l1.1,4.6
				c-0.5,0.5-1.5,1.1-2.8,1.7c-1.3,0.6-2.8,1.2-4.5,1.6c-1.7,0.5-3.4,0.7-5.2,0.7c-3.2,0-5.7-0.5-7.6-1.6c-1.9-1.1-3.3-2.7-4.1-4.8
				c-0.8-2.1-1.3-4.9-1.3-8.3c0-3.1,0.4-5.7,1.3-7.7c0.8-2,2.2-3.5,4.1-4.5c1.9-1,4.5-1.5,7.7-1.5c3.6,0,6.5,0.8,8.6,2.4
				c2.2,1.6,3.3,4.1,3.5,7.5c0,0.4,0.1,1,0.1,1.8c0,1,0,1.8-0.1,2.6s-0.1,1.3-0.2,1.5l-17.3,1C437.7,169.6,438.2,171.1,439.2,171.9z
				 M447.9,160.8c0-2.8-1.7-4.2-5-4.2c-1.6,0-2.9,0.4-3.8,1.3c-0.9,0.9-1.4,2.2-1.5,4l10.2-0.4C447.9,161.3,447.9,161.1,447.9,160.8
				z"/>
		</g>
		<g class="st0">
			<path class="st2" d="M239.1,4.5l-0.3,3.8h-6.2v19.1h-4.9V8.4h-6l-0.3-3.8H239.1z"/>
			<path class="st2" d="M250.9,14.9c-0.4-0.7-1.1-1.1-2.1-1.1c-1.1,0-1.9,0.3-2.4,0.7s-0.8,0.7-0.8,0.8l0,12.1h-4.7l0-22.8l4.7-0.4
				v7.9c0,0,0.3-0.2,0.8-0.6c0.5-0.4,1.1-0.7,1.9-1c0.7-0.3,1.5-0.5,2.3-0.5c2,0,3.5,0.6,4.3,1.8c0.9,1.2,1.3,2.9,1.3,5.2v2.9
				c0,1,0,1.8,0.1,2.3c0.1,0.6,0.2,1,0.4,1.3c0.2,0.3,0.5,0.4,1,0.4c0.4,0,0.8-0.1,1.2-0.3c0.4-0.2,0.6-0.5,0.9-0.7l1,2.3
				c0,0-0.2,0.3-0.7,0.7s-1,0.9-1.7,1.3s-1.4,0.6-2.2,0.6c-1.8,0-3-0.6-3.7-1.7c-0.7-1.1-1-2.6-1-4.5v-3.4
				C251.5,16.7,251.3,15.6,250.9,14.9z"/>
			<path class="st2" d="M266.2,22.2c0.1,0.6,0.2,1,0.5,1.4c0.2,0.3,0.6,0.5,1,0.5c0.5,0,0.9-0.1,1.5-0.3c0.5-0.2,0.9-0.4,1.1-0.6
				l1,2.3c-0.6,0.7-1.4,1.3-2.3,1.8s-1.8,0.7-2.7,0.7c-1.3,0-2.4-0.3-3.1-1c-0.7-0.7-1.2-1.5-1.4-2.5c-0.2-1-0.4-2.1-0.4-3.4v-7.1
				h-1.6v-3.5h2l4.4-0.5v9.9C266,20.8,266.1,21.6,266.2,22.2z M261.6,4.5c0.5-0.4,1.2-0.6,2.1-0.6c0.9,0,1.6,0.2,2,0.6
				s0.7,0.9,0.7,1.6c0,0.6-0.2,1.2-0.7,1.5s-1.2,0.6-2,0.6c-0.9,0-1.6-0.2-2.1-0.6c-0.5-0.4-0.7-0.9-0.7-1.5
				C260.8,5.3,261.1,4.8,261.6,4.5z"/>
			<path class="st2" d="M273.9,23.5c1.3,0.4,2.4,0.5,3.3,0.5c0.9,0,1.7-0.1,2.2-0.4c0.5-0.2,0.8-0.6,0.8-1.2c0-0.4-0.2-0.7-0.5-0.9
				s-0.8-0.5-1.3-0.6c-0.5-0.2-1.2-0.3-2.1-0.6l-0.7-0.2c-1.4-0.4-2.5-1-3.3-1.9c-0.8-0.9-1.2-2-1.2-3.2c0-0.4,0-0.7,0.1-1
				c0.3-1.4,1-2.4,2.3-3.1c1.3-0.6,2.9-1,4.8-1c1.2,0,2.3,0.1,3.3,0.4s1.8,0.6,2.5,1l-0.5,3.6c-0.4-0.2-1-0.4-1.7-0.6
				s-1.4-0.4-2.2-0.5c-0.7-0.1-1.3-0.1-1.8-0.1c-1.5,0-2.3,0.4-2.3,1.2c0,0.5,0.3,0.9,0.8,1.2c0.5,0.3,1.3,0.5,2.4,0.7
				c1.9,0.4,3.4,1,4.5,2s1.7,2.1,1.7,3.5c0,1.3-0.3,2.4-1,3.2c-0.7,0.8-1.6,1.4-2.6,1.7c-1.1,0.3-2.3,0.5-3.5,0.5
				c-0.6,0-1.2,0-1.7-0.1c-2.2-0.2-4-0.8-5.5-1.7l0.4-3.8C271.7,22.7,272.6,23.1,273.9,23.5z"/>
		</g>
		<g class="st0">
			<path class="st1" d="M89.4,45.8v27.3h-5.8V50.4l-0.4-4.6H89.4z"/>
			<path class="st1" d="M105.8,58.2c-0.5-0.8-1.3-1.3-2.6-1.3c-0.7,0-1.3,0.1-1.8,0.4c-0.6,0.3-1,0.6-1.4,0.9
				c-0.4,0.3-0.6,0.5-0.6,0.5v14.4h-5.6v-20l5.6-0.5V55c0-0.1,0.3-0.4,0.9-0.8s1.4-0.9,2.2-1.3c0.9-0.4,1.8-0.6,2.8-0.6
				c2.4,0,4.1,0.7,5.2,2.1c1,1.4,1.6,3.5,1.6,6.2v3.8c0,1.2,0.1,2.1,0.2,2.7c0.1,0.6,0.3,1.1,0.5,1.4c0.3,0.3,0.6,0.4,1.2,0.4
				c0.5,0,1-0.1,1.4-0.3c0.4-0.2,0.7-0.5,1-0.7l1.2,2.8c0,0.1-0.3,0.3-0.8,0.8c-0.5,0.5-1.2,1-2,1.4s-1.7,0.6-2.6,0.6
				c-2.2,0-3.6-0.7-4.4-2.1c-0.8-1.4-1.2-3.1-1.2-5.3v-4.1C106.6,60.3,106.3,59,105.8,58.2z"/>
			<path class="st1" d="M124.3,73.6c-2.8,0-4.7-1.1-5.7-3.3c-1-2.2-1.5-4.7-1.5-7.5c0-3.2,0.6-5.8,1.8-7.7s3.3-2.8,6.1-2.8
				c0.9,0,1.8,0.2,2.7,0.6c0.9,0.4,1.7,0.9,2.3,1.4v-8.4l5.6-0.5v19c0,1.6,0.1,2.7,0.4,3.4c0.3,0.7,0.7,1.1,1.5,1.1
				c0.5,0,1.2-0.1,1.9-0.4c0.7-0.3,1.2-0.6,1.5-0.8l1.2,2.8c-0.7,0.9-1.7,1.6-2.8,2.2c-1.1,0.6-2.2,0.9-3.3,0.9
				c-2.6,0-4.4-1.2-5.2-3.5c-0.6,1-1.4,1.8-2.4,2.5c-0.9,0.6-2,1-3.3,1C124.8,73.6,124.6,73.6,124.3,73.6z M126.5,56.9
				c-1,0-1.7,0.3-2.3,1s-0.9,1.5-1.2,2.4c-0.2,0.9-0.3,1.8-0.3,2.7c0,1.5,0.3,2.8,0.8,3.9c0.5,1.1,1.3,1.7,2.4,1.8l0.3,0
				c0.7,0,1.4-0.2,2.1-0.7c0.7-0.5,1.2-1,1.6-1.7v-7.9C129,57.5,127.8,56.9,126.5,56.9z"/>
			<path class="st1" d="M147.9,68.2c0.8,0.6,1.9,0.9,3.3,0.9c0.6,0,1.1,0,1.6-0.1c1.1-0.1,2.2-0.4,3.4-0.8s2.2-0.7,3-1l0.9,3.4
				c-0.4,0.4-1.1,0.8-2.1,1.3c-1,0.5-2.1,0.9-3.4,1.2c-1.3,0.3-2.6,0.5-3.9,0.5c-2.4,0-4.3-0.4-5.7-1.2c-1.4-0.8-2.4-2-3.1-3.6
				c-0.6-1.6-0.9-3.7-0.9-6.2c0-2.4,0.3-4.3,1-5.8c0.6-1.5,1.7-2.6,3.1-3.4c1.4-0.7,3.3-1.1,5.7-1.1c2.7,0,4.9,0.6,6.5,1.8
				c1.6,1.2,2.5,3.1,2.6,5.6c0,0.3,0,0.7,0,1.3c0,0.7,0,1.4-0.1,2c-0.1,0.6-0.1,1-0.1,1.1l-13,0.8C146.8,66.5,147.1,67.6,147.9,68.2
				z M154.4,59.9c0-2.1-1.2-3.2-3.7-3.2c-1.2,0-2.2,0.3-2.8,1c-0.7,0.7-1,1.7-1.1,3l7.7-0.3C154.4,60.3,154.4,60.1,154.4,59.9z"/>
			<path class="st1" d="M163.3,53.1l5.6-0.6V55c0.2-0.3,0.5-0.7,1-1.1c0.5-0.4,1.1-0.8,1.9-1.1s1.6-0.5,2.5-0.5c3,0,5,1.1,6,3.2
				c1,2.1,1.5,4.7,1.5,7.6c0,3.2-0.6,5.8-1.8,7.7s-3.3,2.8-6.1,2.8c-0.9,0-1.9-0.1-2.8-0.4c-0.9-0.3-1.6-0.7-2.2-1.1v8.7l-5.6-0.4
				V53.1z M169.5,68.3c0.4,0.2,0.8,0.3,1.4,0.5s1.1,0.2,1.6,0.2c1,0,1.7-0.3,2.3-1c0.6-0.7,0.9-1.5,1.1-2.4c0.2-0.9,0.3-1.9,0.3-2.8
				c0-1.2-0.2-2.2-0.5-3.1c-0.3-0.9-0.7-1.5-1.2-2c-0.5-0.5-1.1-0.7-1.7-0.7c-1,0-1.8,0.3-2.5,0.8c-0.6,0.5-1.1,1-1.4,1.5V68
				C168.9,68.1,169.1,68.1,169.5,68.3z"/>
			<path class="st1" d="M190.6,68.2c0.8,0.6,1.9,0.9,3.3,0.9c0.6,0,1.1,0,1.6-0.1c1.1-0.1,2.2-0.4,3.4-0.8s2.2-0.7,3-1l0.9,3.4
				c-0.4,0.4-1.1,0.8-2.1,1.3c-1,0.5-2.1,0.9-3.4,1.2c-1.3,0.3-2.6,0.5-3.9,0.5c-2.4,0-4.3-0.4-5.7-1.2c-1.4-0.8-2.4-2-3.1-3.6
				c-0.6-1.6-0.9-3.7-0.9-6.2c0-2.4,0.3-4.3,1-5.8c0.6-1.5,1.7-2.6,3.1-3.4c1.4-0.7,3.3-1.1,5.7-1.1c2.7,0,4.9,0.6,6.5,1.8
				c1.6,1.2,2.5,3.1,2.6,5.6c0,0.3,0,0.7,0,1.3c0,0.7,0,1.4-0.1,2c-0.1,0.6-0.1,1-0.1,1.1l-13,0.8C189.4,66.5,189.8,67.6,190.6,68.2
				z M197.1,59.9c0-2.1-1.2-3.2-3.7-3.2c-1.2,0-2.2,0.3-2.8,1c-0.7,0.7-1,1.7-1.1,3l7.7-0.3C197.1,60.3,197.1,60.1,197.1,59.9z"/>
			<path class="st1" d="M217.9,58.2c-0.5-0.8-1.3-1.3-2.6-1.3c-0.7,0-1.3,0.1-1.8,0.4c-0.6,0.3-1,0.6-1.4,0.9
				c-0.4,0.3-0.6,0.5-0.6,0.5v14.4H206v-20l5.6-0.5V55c0-0.1,0.3-0.4,0.9-0.8s1.4-0.9,2.2-1.3c0.9-0.4,1.8-0.6,2.8-0.6
				c2.4,0,4.1,0.7,5.2,2.1c1,1.4,1.6,3.5,1.6,6.2v3.8c0,1.2,0.1,2.1,0.2,2.7c0.1,0.6,0.3,1.1,0.5,1.4c0.3,0.3,0.6,0.4,1.2,0.4
				c0.5,0,1-0.1,1.4-0.3c0.4-0.2,0.7-0.5,1-0.7l1.2,2.8c0,0.1-0.3,0.3-0.8,0.8c-0.5,0.5-1.2,1-2,1.4s-1.7,0.6-2.6,0.6
				c-2.2,0-3.6-0.7-4.4-2.1c-0.8-1.4-1.2-3.1-1.2-5.3v-4.1C218.7,60.3,218.4,59,217.9,58.2z"/>
			<path class="st1" d="M236.4,73.6c-2.8,0-4.7-1.1-5.7-3.3c-1-2.2-1.5-4.7-1.5-7.5c0-3.2,0.6-5.8,1.8-7.7s3.3-2.8,6.1-2.8
				c0.9,0,1.8,0.2,2.7,0.6c0.9,0.4,1.7,0.9,2.3,1.4v-8.4l5.6-0.5v19c0,1.6,0.1,2.7,0.4,3.4c0.3,0.7,0.7,1.1,1.5,1.1
				c0.5,0,1.2-0.1,1.9-0.4c0.7-0.3,1.2-0.6,1.5-0.8l1.2,2.8c-0.7,0.9-1.7,1.6-2.8,2.2c-1.1,0.6-2.2,0.9-3.3,0.9
				c-2.6,0-4.4-1.2-5.2-3.5c-0.6,1-1.4,1.8-2.4,2.5c-0.9,0.6-2,1-3.3,1C236.9,73.6,236.7,73.6,236.4,73.6z M238.5,56.9
				c-1,0-1.7,0.3-2.3,1s-0.9,1.5-1.2,2.4c-0.2,0.9-0.3,1.8-0.3,2.7c0,1.5,0.3,2.8,0.8,3.9c0.5,1.1,1.3,1.7,2.4,1.8l0.3,0
				c0.7,0,1.4-0.2,2.1-0.7c0.7-0.5,1.2-1,1.6-1.7v-7.9C241,57.5,239.9,56.9,238.5,56.9z"/>
			<path class="st1" d="M260,68.2c0.8,0.6,1.9,0.9,3.3,0.9c0.6,0,1.1,0,1.6-0.1c1.1-0.1,2.2-0.4,3.4-0.8c1.2-0.4,2.2-0.7,3-1
				l0.9,3.4c-0.4,0.4-1.1,0.8-2.1,1.3s-2.1,0.9-3.4,1.2c-1.3,0.3-2.6,0.5-3.9,0.5c-2.4,0-4.3-0.4-5.7-1.2c-1.4-0.8-2.4-2-3.1-3.6
				c-0.6-1.6-0.9-3.7-0.9-6.2c0-2.4,0.3-4.3,1-5.8c0.6-1.5,1.7-2.6,3.1-3.4c1.4-0.7,3.3-1.1,5.7-1.1c2.7,0,4.9,0.6,6.5,1.8
				c1.6,1.2,2.5,3.1,2.6,5.6c0,0.3,0,0.7,0,1.3c0,0.7,0,1.4-0.1,2s-0.1,1-0.1,1.1l-13,0.8C258.8,66.5,259.2,67.6,260,68.2z
				 M266.5,59.9c0-2.1-1.2-3.2-3.7-3.2c-1.2,0-2.2,0.3-2.8,1s-1,1.7-1.1,3l7.7-0.3C266.5,60.3,266.5,60.1,266.5,59.9z"/>
			<path class="st1" d="M287.3,58.2c-0.5-0.8-1.3-1.3-2.6-1.3c-0.7,0-1.3,0.1-1.8,0.4c-0.6,0.3-1,0.6-1.4,0.9
				c-0.4,0.3-0.6,0.5-0.6,0.5v14.4h-5.6v-20l5.6-0.5V55c0-0.1,0.3-0.4,0.9-0.8s1.4-0.9,2.2-1.3s1.8-0.6,2.8-0.6
				c2.4,0,4.1,0.7,5.2,2.1c1,1.4,1.6,3.5,1.6,6.2v3.8c0,1.2,0.1,2.1,0.2,2.7c0.1,0.6,0.3,1.1,0.5,1.4c0.3,0.3,0.6,0.4,1.2,0.4
				c0.5,0,1-0.1,1.4-0.3c0.4-0.2,0.7-0.5,1-0.7l1.2,2.8c0,0.1-0.3,0.3-0.8,0.8c-0.5,0.5-1.2,1-2,1.4c-0.8,0.4-1.7,0.6-2.6,0.6
				c-2.2,0-3.6-0.7-4.4-2.1c-0.8-1.4-1.2-3.1-1.2-5.3v-4.1C288.1,60.3,287.8,59,287.3,58.2z"/>
			<path class="st1" d="M310.8,58c-0.6-0.7-1.5-1.1-2.7-1.1c-1.1,0-1.9,0.3-2.5,0.9c-0.6,0.6-1,1.3-1.1,2.1c-0.2,0.9-0.3,1.9-0.3,3
				c0,1.8,0.3,3.3,0.9,4.4c0.6,1.1,1.6,1.6,3.1,1.6c1.3,0,2.2-0.4,2.8-1.2c0.6-0.8,1-1.8,1.1-3.1l5.6,0c0,5.9-3.2,8.9-9.5,8.9
				c-1.7,0-3.2-0.2-4.5-0.6c-1.4-0.4-2.5-1.3-3.5-2.8c-1-1.4-1.5-3.6-1.5-6.4v-1.6c0-2.6,0.4-4.7,1.3-6.1s2-2.4,3.4-2.9
				c1.4-0.5,3-0.8,4.8-0.8c2.5,0,4.7,0.6,6.6,1.8c1.9,1.2,2.8,3.5,2.8,6.9H312C311.8,59.8,311.4,58.8,310.8,58z"/>
			<path class="st1" d="M326.7,68.2c0.8,0.6,1.9,0.9,3.3,0.9c0.6,0,1.1,0,1.6-0.1c1.1-0.1,2.2-0.4,3.4-0.8c1.2-0.4,2.2-0.7,3-1
				l0.9,3.4c-0.4,0.4-1.1,0.8-2.1,1.3c-1,0.5-2.1,0.9-3.4,1.2c-1.3,0.3-2.6,0.5-3.9,0.5c-2.4,0-4.3-0.4-5.7-1.2
				c-1.4-0.8-2.4-2-3.1-3.6c-0.6-1.6-0.9-3.7-0.9-6.2c0-2.4,0.3-4.3,1-5.8c0.6-1.5,1.7-2.6,3.1-3.4c1.4-0.7,3.3-1.1,5.7-1.1
				c2.7,0,4.9,0.6,6.5,1.8s2.5,3.1,2.6,5.6c0,0.3,0,0.7,0,1.3c0,0.7,0,1.4-0.1,2c-0.1,0.6-0.1,1-0.1,1.1l-13,0.8
				C325.6,66.5,326,67.6,326.7,68.2z M333.3,59.9c0-2.1-1.2-3.2-3.7-3.2c-1.2,0-2.2,0.3-2.8,1c-0.7,0.7-1,1.7-1.1,3l7.7-0.3
				C333.3,60.3,333.3,60.1,333.3,59.9z"/>
			<path class="st1" d="M371.6,47.8c2,1.3,3.2,3.3,3.7,6c0.2,0.8,0.3,1.6,0.3,2.6c0.1,1,0.1,2.2,0.1,3.7c0,2-0.2,3.9-0.5,5.6
				c-0.4,1.7-1,3-2,4.1c-1.1,1.2-2.4,2.1-4.2,2.6c-1.7,0.5-3.6,0.8-5.6,0.8h-10.2V50.4l-0.4-4.6h10.6
				C366.9,45.8,369.6,46.5,371.6,47.8z M359,68.5h4.4c2.9,0,4.8-1.1,5.8-3.2c0.3-0.6,0.5-1.4,0.7-2.3c0.1-0.9,0.2-1.9,0.2-3.1v-1
				c0-1.3,0-2.4-0.1-3.1c-0.2-1.9-1-3.3-2.2-4.2c-1.2-0.9-2.6-1.3-4.3-1.3H359V68.5z"/>
			<path class="st1" d="M396.9,66.8c0.1,0.7,0.3,1.2,0.5,1.6c0.3,0.4,0.7,0.6,1.2,0.6c0.5,0,1.1-0.1,1.8-0.4
				c0.6-0.3,1.1-0.5,1.4-0.8l1.2,2.8c-0.7,0.9-1.7,1.6-2.7,2.1s-2.2,0.8-3.2,0.8c-2.6,0-4.3-1.2-5.2-3.5c-0.6,1-1.4,1.8-2.4,2.4
				c-0.9,0.6-2,1-3.2,1c-0.2,0-0.4,0-0.7,0c-2.8,0-4.7-1.1-5.7-3.3c-1-2.2-1.5-4.7-1.5-7.5c0-3.2,0.6-5.8,1.8-7.7s3.3-2.8,6.1-2.8
				c0.9,0,1.8,0.2,2.7,0.6c0.9,0.4,1.7,0.9,2.2,1.4v-1.7l5.6,0.5V64C396.8,65.2,396.8,66.1,396.9,66.8z M387.6,56.9
				c-1,0-1.7,0.3-2.3,1s-0.9,1.5-1.2,2.4c-0.2,0.9-0.3,1.8-0.3,2.7c0,1.5,0.3,2.8,0.8,3.9c0.5,1.1,1.3,1.7,2.4,1.8l0.3,0
				c0.7,0,1.4-0.2,2.1-0.7c0.7-0.5,1.2-1,1.6-1.7v-7.9C390.1,57.5,389,56.9,387.6,56.9z"/>
			<path class="st1" d="M408.7,64.1c0,1.2,0.1,2.2,0.3,2.9c0.2,0.7,0.5,1.2,1,1.5c0.5,0.3,1.1,0.5,2,0.5c0.7,0,1.3-0.1,1.8-0.4
				c0.6-0.3,1-0.6,1.4-0.9c0.4-0.3,0.6-0.5,0.6-0.5V52.8h5.6v18.8c0,1.7-0.3,3.2-0.9,4.7c-0.6,1.5-1.6,2.7-2.9,3.6
				c-1.3,0.9-2.9,1.4-4.9,1.4c-0.3,0-0.7,0-1.3-0.1c-0.9-0.1-1.8-0.2-2.6-0.4c-0.9-0.2-1.5-0.4-1.8-0.6v-3.7
				c0.3,0.2,0.9,0.4,1.7,0.5c0.8,0.1,1.5,0.2,2.2,0.2c1.4,0,2.6-0.4,3.5-1.2c0.9-0.8,1.4-2.1,1.4-3.9l0-1c-0.6,0.6-1.4,1.2-2.4,1.7
				c-1,0.5-2.2,0.7-3.5,0.7c-2.4,0-4.1-0.7-5.2-2.1c-1-1.4-1.6-3.5-1.6-6.2V52.5l5.6,0.6V64.1z"/>
			<path class="st1" d="M426.7,68.8c0.6-0.5,1.4-0.8,2.5-0.8c0.9,0,1.6,0.2,2.2,0.6c0.6,0.4,1,0.9,1.1,1.7c0.1,0.3,0.1,0.6,0.1,1
				c0,1.5-0.5,2.8-1.4,4c-0.9,1.1-2.1,2-3.6,2.5l-1.3-1.8c0.6-0.4,1.1-0.7,1.5-1.1c0.4-0.4,0.6-0.8,0.7-1.1c0.1-0.3,0.1-0.5,0.1-0.6
				c-0.5,0-0.9-0.1-1.4-0.3c-0.4-0.2-0.8-0.5-1.1-0.9s-0.4-0.8-0.4-1.2C425.8,70,426.1,69.3,426.7,68.8z"/>
		</g>
		<g class="st0">
			<path class="st2" d="M16.9,102.2c0.1,1.2,0.2,2.5,0.2,3.6c0,0.8-0.1,1.6-0.2,2.3l1,3.3c1.5-0.2,2.6-0.8,3.2-2
				c0.6-1.2,1-2.8,0.9-5c0-0.5-0.1-1.2-0.2-2.2c-0.1-0.9-0.2-1.8-0.3-2.6c-0.1-0.8-0.2-1.3-0.2-1.5l4.7-0.4c0.3,1.7,0.5,3.2,0.6,4.5
				c0.1,1.2,0.2,2.5,0.2,3.6c0,1.9-0.4,3.6-1.1,5.1c-0.7,1.4-1.8,2.6-3.1,3.4c-1.4,0.8-3,1.2-4.8,1.2c-0.5,0-0.9-0.1-1.3-0.2
				c-0.4-0.1-0.7-0.3-0.9-0.4c-0.2-0.1-0.4-0.2-0.4-0.2l-0.6-1.6c-0.8,0.8-1.7,1.4-2.8,1.8c-1.1,0.4-2.3,0.6-3.7,0.7l-4-0.2
				l-2.8-13.7H0v-3.6h5.4l2.8,13.5c1.5-0.2,2.6-0.8,3.2-2c0.6-1.2,1-2.8,0.9-5c0-0.5-0.1-1.2-0.2-2.2s-0.2-1.8-0.3-2.6
				c-0.1-0.8-0.2-1.3-0.2-1.5l4.7-0.4C16.6,99.4,16.8,100.9,16.9,102.2z"/>
			<path class="st2" d="M34.9,110.8c0.6,0.5,1.6,0.8,2.7,0.8c0.5,0,0.9,0,1.4-0.1c0.9-0.1,1.9-0.3,2.9-0.7c1-0.3,1.9-0.6,2.5-0.9
				l0.7,2.9c-0.3,0.3-0.9,0.7-1.8,1.1c-0.8,0.4-1.8,0.7-2.9,1c-1.1,0.3-2.2,0.4-3.3,0.4c-2,0-3.6-0.3-4.8-1s-2.1-1.7-2.6-3
				c-0.5-1.3-0.8-3.1-0.8-5.2c0-2,0.3-3.6,0.8-4.9c0.5-1.3,1.4-2.2,2.6-2.8s2.8-0.9,4.8-0.9c2.3,0,4.1,0.5,5.4,1.5
				c1.4,1,2.1,2.6,2.2,4.7c0,0.3,0,0.6,0,1.1c0,0.6,0,1.2-0.1,1.7c0,0.5-0.1,0.8-0.1,1L34,108.1C34,109.4,34.3,110.3,34.9,110.8z
				 M40.4,103.8c0-1.8-1-2.7-3.1-2.7c-1,0-1.8,0.3-2.4,0.8c-0.6,0.6-0.9,1.4-0.9,2.5l6.4-0.2C40.4,104.2,40.4,104,40.4,103.8z"/>
			<path class="st2" d="M58.2,111c1.3,0.4,2.4,0.5,3.3,0.5c0.9,0,1.7-0.1,2.2-0.4c0.5-0.2,0.8-0.6,0.8-1.2c0-0.4-0.2-0.7-0.5-0.9
				c-0.3-0.3-0.8-0.5-1.3-0.6c-0.5-0.2-1.2-0.3-2.1-0.6l-0.7-0.2c-1.4-0.4-2.5-1-3.3-1.9c-0.8-0.9-1.2-2-1.2-3.2c0-0.4,0-0.7,0.1-1
				c0.3-1.4,1-2.4,2.3-3.1c1.3-0.6,2.9-1,4.8-1c1.2,0,2.3,0.1,3.3,0.4c1,0.3,1.8,0.6,2.5,1l-0.5,3.6c-0.4-0.2-1-0.4-1.7-0.6
				s-1.4-0.4-2.2-0.5c-0.7-0.1-1.3-0.1-1.8-0.1c-1.5,0-2.3,0.4-2.3,1.2c0,0.5,0.3,0.9,0.8,1.2c0.5,0.3,1.3,0.5,2.4,0.7
				c1.9,0.4,3.4,1,4.5,2c1.1,0.9,1.7,2.1,1.7,3.5c0,1.3-0.3,2.4-1,3.2s-1.6,1.4-2.6,1.7c-1.1,0.3-2.3,0.5-3.5,0.5
				c-0.6,0-1.2,0-1.7-0.1c-2.2-0.2-4-0.8-5.5-1.7l0.4-3.8C55.9,110.2,56.9,110.6,58.2,111z"/>
			<path class="st2" d="M86.8,109.7c0.1,0.6,0.2,1,0.5,1.4s0.6,0.5,1,0.5c0.5,0,0.9-0.1,1.5-0.3c0.5-0.2,0.9-0.4,1.1-0.6l1,2.3
				c-0.6,0.7-1.4,1.3-2.3,1.8c-0.9,0.5-1.8,0.7-2.7,0.7c-2.2,0-3.6-1-4.3-2.9c-0.5,0.8-1.2,1.5-2,2.1c-0.8,0.5-1.7,0.8-2.7,0.9
				c-0.1,0-0.3,0-0.6,0c-2.3,0-3.9-0.9-4.8-2.8s-1.3-3.9-1.3-6.3c0-2.7,0.5-4.9,1.5-6.5c1-1.6,2.7-2.4,5.1-2.4
				c0.7,0,1.5,0.2,2.3,0.5c0.8,0.3,1.4,0.7,1.9,1.2v-1.4l4.7,0.4v9.2C86.7,108.3,86.8,109.1,86.8,109.7z M79,101.4
				c-0.8,0-1.4,0.3-1.9,0.9c-0.5,0.6-0.8,1.3-1,2s-0.3,1.6-0.3,2.3c0,1.3,0.3,2.4,0.7,3.3c0.4,0.9,1.1,1.4,2,1.5l0.2,0
				c0.6,0,1.2-0.2,1.8-0.6c0.6-0.4,1-0.9,1.4-1.4v-6.6C81.1,101.8,80.1,101.4,79,101.4z"/>
			<path class="st2" d="M97.4,109.6c0.1,0.6,0.2,1,0.5,1.4c0.2,0.3,0.6,0.5,1,0.5c0.5,0,0.9-0.1,1.5-0.3c0.5-0.2,0.9-0.4,1.1-0.6
				l1,2.3c-0.6,0.7-1.4,1.3-2.3,1.8c-0.9,0.5-1.8,0.7-2.7,0.7c-1.3,0-2.4-0.3-3.1-1c-0.7-0.6-1.2-1.5-1.4-2.4s-0.4-2.1-0.4-3.4
				l0-16.5l4.7-0.5v15.8C97.3,108.3,97.4,109,97.4,109.6z"/>
			<path class="st2" d="M117.9,109.7c0.1,0.6,0.2,1,0.5,1.3c0.2,0.3,0.6,0.5,1,0.5c0.5,0,0.9-0.1,1.5-0.3s0.9-0.4,1.1-0.6l1,2.3
				c-0.5,0.6-1.2,1.1-1.9,1.5c-0.7,0.4-1.5,0.7-2.3,0.8c-0.3,0-0.5,0.1-0.7,0.1c-0.3,0-0.7,0-0.9-0.1c-0.7-0.1-1.4-0.4-2-0.8
				c-0.6-0.4-1-0.9-1.4-1.6c-0.2,0.2-0.5,0.5-1,0.9c-0.5,0.4-1.1,0.8-2,1.1s-1.7,0.5-2.8,0.5c-2,0-3.5-0.6-4.3-1.8s-1.3-2.9-1.3-5.2
				V97.7l4.7,0.5v9c0,1,0.1,1.8,0.2,2.5c0.2,0.6,0.4,1.1,0.8,1.4s0.9,0.5,1.6,0.5c0.5,0,0.9-0.1,1.4-0.3c0.4-0.2,0.7-0.4,0.9-0.5
				c0.2-0.2,0.5-0.4,0.9-0.8c0-0.5,0-1.1,0-2.1l0-9.9h4.7l0,9.4C117.8,108.4,117.9,109.2,117.9,109.7z"/>
			<path class="st2" d="M128.3,107.3c0,1,0,1.8,0.1,2.4c0.1,0.6,0.2,1,0.4,1.4s0.5,0.5,1,0.5c0.5,0,1-0.1,1.5-0.3
				c0.5-0.2,0.9-0.4,1.1-0.6l1,2.3c-0.6,0.7-1.4,1.3-2.3,1.8c-0.9,0.5-1.8,0.7-2.7,0.7c-1.8,0-3.1-0.6-3.8-1.7
				c-0.7-1.2-1.1-2.6-1.1-4.4v-0.4l0-7.3h-1.8v-3.5h1.8v-4.7l4.7-0.2v4.9h3.6l-0.4,3.5h-3.1l0,5.7V107.3z"/>
			<path class="st2" d="M138.8,110.8c0.6,0.5,1.6,0.8,2.7,0.8c0.5,0,0.9,0,1.4-0.1c0.9-0.1,1.9-0.3,2.9-0.7c1-0.3,1.9-0.6,2.5-0.9
				l0.7,2.9c-0.3,0.3-0.9,0.7-1.8,1.1c-0.8,0.4-1.8,0.7-2.9,1c-1.1,0.3-2.2,0.4-3.3,0.4c-2,0-3.6-0.3-4.8-1s-2.1-1.7-2.6-3
				c-0.5-1.3-0.8-3.1-0.8-5.2c0-2,0.3-3.6,0.8-4.9c0.5-1.3,1.4-2.2,2.6-2.8s2.8-0.9,4.8-0.9c2.3,0,4.1,0.5,5.4,1.5
				c1.4,1,2.1,2.6,2.2,4.7c0,0.3,0,0.6,0,1.1c0,0.6,0,1.2-0.1,1.7c0,0.5-0.1,0.8-0.1,1l-10.9,0.6
				C137.8,109.4,138.1,110.3,138.8,110.8z M144.3,103.8c0-1.8-1-2.7-3.1-2.7c-1,0-1.8,0.3-2.4,0.8c-0.6,0.6-0.9,1.4-0.9,2.5l6.4-0.2
				C144.3,104.2,144.3,104,144.3,103.8z"/>
			<path class="st2" d="M164.6,107.3c0,1,0,1.8,0.1,2.4c0.1,0.6,0.2,1,0.4,1.4s0.5,0.5,1,0.5c0.5,0,1-0.1,1.5-0.3
				c0.5-0.2,0.9-0.4,1.1-0.6l1,2.3c-0.6,0.7-1.4,1.3-2.3,1.8c-0.9,0.5-1.8,0.7-2.7,0.7c-1.8,0-3.1-0.6-3.8-1.7
				c-0.7-1.2-1.1-2.6-1.1-4.4v-0.4l0-7.3H158v-3.5h1.8v-4.7l4.7-0.2v4.9h3.6l-0.4,3.5h-3.1l0,5.7V107.3z"/>
			<path class="st2" d="M180.1,102.4c-0.4-0.7-1.1-1.1-2.1-1.1c-1.1,0-1.9,0.3-2.4,0.7s-0.8,0.7-0.8,0.8l0,12.1h-4.7l0-22.8l4.7-0.4
				v7.9c0,0,0.3-0.2,0.8-0.6c0.5-0.4,1.1-0.7,1.9-1c0.7-0.3,1.5-0.5,2.3-0.5c2,0,3.5,0.6,4.3,1.8c0.9,1.2,1.3,2.9,1.3,5.2v2.9
				c0,1,0,1.8,0.1,2.3c0.1,0.6,0.2,1,0.4,1.3c0.2,0.3,0.5,0.4,1,0.4c0.4,0,0.8-0.1,1.2-0.3c0.4-0.2,0.6-0.5,0.9-0.7l1,2.3
				c0,0-0.2,0.3-0.7,0.8s-1,0.9-1.7,1.3s-1.4,0.6-2.2,0.6c-1.8,0-3-0.6-3.7-1.7c-0.7-1.1-1-2.6-1-4.5v-3.4
				C180.8,104.2,180.6,103.1,180.1,102.4z"/>
			<path class="st2" d="M195.3,110.8c0.6,0.5,1.6,0.8,2.7,0.8c0.5,0,0.9,0,1.4-0.1c0.9-0.1,1.9-0.3,2.9-0.7c1-0.3,1.9-0.6,2.5-0.9
				l0.7,2.9c-0.3,0.3-0.9,0.7-1.8,1.1c-0.8,0.4-1.8,0.7-2.9,1c-1.1,0.3-2.2,0.4-3.3,0.4c-2,0-3.6-0.3-4.8-1s-2.1-1.7-2.6-3
				c-0.5-1.3-0.8-3.1-0.8-5.2c0-2,0.3-3.6,0.8-4.9c0.5-1.3,1.4-2.2,2.6-2.8s2.8-0.9,4.8-0.9c2.3,0,4.1,0.5,5.4,1.5
				c1.4,1,2.1,2.6,2.2,4.7c0,0.3,0,0.6,0,1.1c0,0.6,0,1.2-0.1,1.7c0,0.5-0.1,0.8-0.1,1l-10.9,0.6
				C194.4,109.4,194.7,110.3,195.3,110.8z M200.8,103.8c0-1.8-1-2.7-3.1-2.7c-1,0-1.8,0.3-2.4,0.8c-0.6,0.6-0.9,1.4-0.9,2.5l6.4-0.2
				C200.8,104.2,200.8,104,200.8,103.8z"/>
			<path class="st2" d="M226.5,102.4c-0.4-0.7-1.1-1.1-2.1-1.1c-1.1,0-1.9,0.3-2.4,0.7s-0.8,0.7-0.8,0.8l0,12.1h-4.7l0-22.8l4.7-0.4
				v7.9c0,0,0.3-0.2,0.8-0.6c0.5-0.4,1.1-0.7,1.9-1c0.7-0.3,1.5-0.5,2.3-0.5c2,0,3.5,0.6,4.3,1.8c0.9,1.2,1.3,2.9,1.3,5.2v2.9
				c0,1,0,1.8,0.1,2.3c0.1,0.6,0.2,1,0.4,1.3c0.2,0.3,0.5,0.4,1,0.4c0.4,0,0.8-0.1,1.2-0.3c0.4-0.2,0.6-0.5,0.9-0.7l1,2.3
				c0,0-0.2,0.3-0.7,0.8s-1,0.9-1.7,1.3s-1.4,0.6-2.2,0.6c-1.8,0-3-0.6-3.7-1.7c-0.7-1.1-1-2.6-1-4.5v-3.4
				C227.1,104.2,226.9,103.1,226.5,102.4z"/>
			<path class="st2" d="M241.6,110.8c0.6,0.5,1.6,0.8,2.7,0.8c0.5,0,0.9,0,1.4-0.1c0.9-0.1,1.9-0.3,2.9-0.7c1-0.3,1.9-0.6,2.5-0.9
				l0.7,2.9c-0.3,0.3-0.9,0.7-1.8,1.1c-0.8,0.4-1.8,0.7-2.9,1c-1.1,0.3-2.2,0.4-3.3,0.4c-2,0-3.6-0.3-4.8-1s-2.1-1.7-2.6-3
				c-0.5-1.3-0.8-3.1-0.8-5.2c0-2,0.3-3.6,0.8-4.9c0.5-1.3,1.4-2.2,2.6-2.8s2.8-0.9,4.8-0.9c2.3,0,4.1,0.5,5.4,1.5
				c1.4,1,2.1,2.6,2.2,4.7c0,0.3,0,0.6,0,1.1c0,0.6,0,1.2-0.1,1.7c0,0.5-0.1,0.8-0.1,1l-10.9,0.6C240.7,109.4,241,110.3,241.6,110.8
				z M247.1,103.8c0-1.8-1-2.7-3.1-2.7c-1,0-1.8,0.3-2.4,0.8c-0.6,0.6-0.9,1.4-0.9,2.5l6.4-0.2C247.1,104.2,247.1,104,247.1,103.8z"
				/>
		</g>
		<g class="st0">
			<path class="st2" d="M264.8,101.2c-0.4-0.1-0.8-0.1-1.3-0.1c-0.7,0-1.3,0.2-2,0.5c-0.7,0.3-1.2,0.8-1.6,1.3
				c-0.4,0.5-0.6,1.1-0.6,1.7v10.4h-4.7V98.1l4.7-0.4v2.5c0.5-0.8,1.2-1.4,2.1-1.9c0.9-0.5,1.9-0.7,3-0.7c0.5,0,1,0.1,1.5,0.2
				s0.7,0.2,0.9,0.3l-0.6,3.6C265.6,101.4,265.2,101.3,264.8,101.2z"/>
		</g>
		<g class="st0">
			<path class="st2" d="M278.2,98c1.1,0.3,2.1,1.1,3,2.3c0.8,1.2,1.2,3,1.2,5.4v1.4c0,2.2-0.4,3.9-1.1,5.1c-0.7,1.2-1.7,2-2.9,2.5
				s-2.5,0.6-4,0.6c-1.4,0-2.7-0.2-3.8-0.5s-2.1-1.1-3-2.3c-0.8-1.2-1.2-3-1.2-5.4v-1.4c0-2.2,0.4-3.9,1.1-5.1
				c0.7-1.2,1.7-2,2.9-2.5s2.5-0.6,4-0.6C275.8,97.5,277.1,97.6,278.2,98z M271.8,110.1c0.5,0.9,1.4,1.4,2.6,1.4
				c1.3,0,2.2-0.5,2.7-1.4c0.4-0.9,0.7-2.2,0.7-3.6c0-1.5-0.2-2.8-0.7-3.7c-0.5-0.9-1.4-1.4-2.6-1.4c-1.3,0-2.2,0.5-2.7,1.4
				c-0.4,0.9-0.7,2.2-0.7,3.6C271.1,107.9,271.3,109.2,271.8,110.1z"/>
			<path class="st2" d="M290.2,110.8c0.6,0.5,1.6,0.8,2.7,0.8c0.5,0,0.9,0,1.4-0.1c0.9-0.1,1.9-0.3,2.9-0.7c1-0.3,1.9-0.6,2.5-0.9
				l0.7,2.9c-0.3,0.3-0.9,0.7-1.8,1.1c-0.8,0.4-1.8,0.7-2.9,1c-1.1,0.3-2.2,0.4-3.3,0.4c-2,0-3.6-0.3-4.8-1c-1.2-0.7-2.1-1.7-2.6-3
				s-0.8-3.1-0.8-5.2c0-2,0.3-3.6,0.8-4.9c0.5-1.3,1.4-2.2,2.6-2.8s2.8-0.9,4.8-0.9c2.3,0,4.1,0.5,5.4,1.5c1.4,1,2.1,2.6,2.2,4.7
				c0,0.3,0,0.6,0,1.1c0,0.6,0,1.2-0.1,1.7c0,0.5-0.1,0.8-0.1,1l-10.9,0.6C289.2,109.4,289.5,110.3,290.2,110.8z M295.7,103.8
				c0-1.8-1-2.7-3.1-2.7c-1,0-1.8,0.3-2.4,0.8c-0.6,0.6-0.9,1.4-0.9,2.5l6.4-0.2C295.7,104.2,295.7,104,295.7,103.8z"/>
			<path class="st2" d="M305.3,111c1.3,0.4,2.4,0.5,3.3,0.5c0.9,0,1.7-0.1,2.2-0.4c0.5-0.2,0.8-0.6,0.8-1.2c0-0.4-0.2-0.7-0.5-0.9
				c-0.3-0.3-0.8-0.5-1.3-0.6c-0.5-0.2-1.2-0.3-2.1-0.6l-0.7-0.2c-1.4-0.4-2.5-1-3.3-1.9c-0.8-0.9-1.2-2-1.2-3.2c0-0.4,0-0.7,0.1-1
				c0.3-1.4,1-2.4,2.3-3.1c1.3-0.6,2.9-1,4.8-1c1.2,0,2.3,0.1,3.3,0.4s1.8,0.6,2.5,1l-0.5,3.6c-0.4-0.2-1-0.4-1.7-0.6
				s-1.4-0.4-2.2-0.5c-0.7-0.1-1.3-0.1-1.8-0.1c-1.5,0-2.3,0.4-2.3,1.2c0,0.5,0.3,0.9,0.8,1.2c0.5,0.3,1.3,0.5,2.4,0.7
				c1.9,0.4,3.4,1,4.5,2c1.1,0.9,1.7,2.1,1.7,3.5c0,1.3-0.3,2.4-1,3.2s-1.6,1.4-2.6,1.7c-1.1,0.3-2.3,0.5-3.5,0.5
				c-0.6,0-1.2,0-1.7-0.1c-2.2-0.2-4-0.8-5.5-1.7l0.4-3.8C303,110.2,304,110.6,305.3,111z"/>
			<path class="st2" d="M327.3,101.4h-2.1v-3.5h2.1c0-1.8,0.1-3.2,0.3-4.3c0.2-1.1,0.7-2.1,1.4-2.8c0.8-0.7,1.9-1.1,3.4-1.1
				c1.1,0,2,0.2,2.8,0.5c0.8,0.3,1.5,0.7,2.1,1.2l-0.5,3.1c0,0-0.2-0.1-0.5-0.2c-0.3-0.2-0.7-0.3-1.1-0.4c-0.4-0.1-0.9-0.2-1.3-0.2
				c-0.6,0-1.1,0.2-1.4,0.7c-0.3,0.5-0.5,1.2-0.5,2.1v1.6h4.2l-0.4,3.5H332l0,13.5h-4.7V101.4z"/>
			<path class="st2" d="M349.7,98c1.1,0.3,2.1,1.1,3,2.3c0.8,1.2,1.2,3,1.2,5.4v1.4c0,2.2-0.4,3.9-1.1,5.1c-0.7,1.2-1.7,2-2.9,2.5
				s-2.5,0.6-4,0.6c-1.4,0-2.7-0.2-3.8-0.5s-2.1-1.1-3-2.3c-0.8-1.2-1.2-3-1.2-5.4v-1.4c0-2.2,0.4-3.9,1.1-5.1
				c0.7-1.2,1.7-2,2.9-2.5s2.5-0.6,4-0.6C347.3,97.5,348.6,97.6,349.7,98z M343.3,110.1c0.5,0.9,1.4,1.4,2.6,1.4
				c1.3,0,2.2-0.5,2.7-1.4c0.4-0.9,0.7-2.2,0.7-3.6c0-1.5-0.2-2.8-0.7-3.7c-0.5-0.9-1.4-1.4-2.6-1.4c-1.3,0-2.2,0.5-2.7,1.4
				c-0.4,0.9-0.7,2.2-0.7,3.6C342.6,107.9,342.8,109.2,343.3,110.1z"/>
			<path class="st2" d="M366.9,101.2c-0.4-0.1-0.8-0.1-1.3-0.1c-0.7,0-1.3,0.2-2,0.5c-0.7,0.3-1.2,0.8-1.6,1.3
				c-0.4,0.5-0.6,1.1-0.6,1.7v10.4h-4.7V98.1l4.7-0.4v2.5c0.5-0.8,1.2-1.4,2.1-1.9c0.9-0.5,1.9-0.7,3-0.7c0.5,0,1,0.1,1.5,0.2
				c0.4,0.1,0.7,0.2,0.9,0.3l-0.6,3.6C367.7,101.4,367.3,101.3,366.9,101.2z"/>
			<path class="st2" d="M383.8,110.8c0.6,0.5,1.6,0.8,2.7,0.8c0.5,0,0.9,0,1.4-0.1c0.9-0.1,1.9-0.3,2.9-0.7c1-0.3,1.9-0.6,2.5-0.9
				l0.7,2.9c-0.3,0.3-0.9,0.7-1.8,1.1c-0.8,0.4-1.8,0.7-2.9,1c-1.1,0.3-2.2,0.4-3.3,0.4c-2,0-3.6-0.3-4.8-1c-1.2-0.7-2.1-1.7-2.6-3
				s-0.8-3.1-0.8-5.2c0-2,0.3-3.6,0.8-4.9c0.5-1.3,1.4-2.2,2.6-2.8s2.8-0.9,4.8-0.9c2.3,0,4.1,0.5,5.4,1.5c1.4,1,2.1,2.6,2.2,4.7
				c0,0.3,0,0.6,0,1.1c0,0.6,0,1.2-0.1,1.7c0,0.5-0.1,0.8-0.1,1l-10.9,0.6C382.9,109.4,383.2,110.3,383.8,110.8z M389.3,103.8
				c0-1.8-1-2.7-3.1-2.7c-1,0-1.8,0.3-2.4,0.8c-0.6,0.6-0.9,1.4-0.9,2.5l6.4-0.2C389.3,104.2,389.3,104,389.3,103.8z"/>
			<path class="st2" d="M406.8,102.4c-0.4-0.7-1.1-1.1-2.1-1.1c-0.6,0-1.1,0.1-1.5,0.3s-0.9,0.5-1.2,0.7c-0.3,0.3-0.5,0.4-0.5,0.4
				v12.1h-4.7V98.1l4.7-0.4v2.1c0-0.1,0.3-0.3,0.8-0.7c0.5-0.4,1.1-0.8,1.9-1.1c0.7-0.3,1.5-0.5,2.3-0.5c2,0,3.5,0.6,4.3,1.8
				c0.9,1.2,1.3,2.9,1.3,5.2v3.2c0,1,0.1,1.7,0.1,2.3c0.1,0.5,0.2,0.9,0.4,1.2c0.2,0.2,0.5,0.4,1,0.4c0.4,0,0.8-0.1,1.2-0.3
				c0.4-0.2,0.6-0.4,0.8-0.6l1,2.3c0,0-0.2,0.3-0.7,0.7s-1,0.8-1.7,1.2c-0.7,0.4-1.4,0.5-2.2,0.5c-1.8,0-3-0.6-3.7-1.7
				c-0.7-1.1-1-2.6-1-4.5v-3.4C407.4,104.2,407.2,103.1,406.8,102.4z"/>
			<path class="st2" d="M419.2,111c1.3,0.4,2.4,0.5,3.3,0.5c0.9,0,1.7-0.1,2.2-0.4c0.5-0.2,0.8-0.6,0.8-1.2c0-0.4-0.2-0.7-0.5-0.9
				c-0.3-0.3-0.8-0.5-1.3-0.6c-0.5-0.2-1.2-0.3-2.1-0.6l-0.7-0.2c-1.4-0.4-2.5-1-3.3-1.9c-0.8-0.9-1.2-2-1.2-3.2c0-0.4,0-0.7,0.1-1
				c0.3-1.4,1-2.4,2.3-3.1c1.3-0.6,2.9-1,4.8-1c1.2,0,2.3,0.1,3.3,0.4s1.8,0.6,2.5,1l-0.5,3.6c-0.4-0.2-1-0.4-1.7-0.6
				s-1.4-0.4-2.2-0.5c-0.7-0.1-1.3-0.1-1.8-0.1c-1.5,0-2.3,0.4-2.3,1.2c0,0.5,0.3,0.9,0.8,1.2c0.5,0.3,1.3,0.5,2.4,0.7
				c1.9,0.4,3.4,1,4.5,2c1.1,0.9,1.7,2.1,1.7,3.5c0,1.3-0.3,2.4-1,3.2s-1.6,1.4-2.6,1.7c-1.1,0.3-2.3,0.5-3.5,0.5
				c-0.6,0-1.2,0-1.7-0.1c-2.2-0.2-4-0.8-5.5-1.7l0.4-3.8C416.9,110.2,417.9,110.6,419.2,111z"/>
			<path class="st2" d="M447.8,109.7c0.1,0.6,0.2,1,0.5,1.3c0.2,0.3,0.6,0.5,1,0.5c0.5,0,0.9-0.1,1.5-0.3s0.9-0.4,1.1-0.6l1,2.3
				c-0.5,0.6-1.2,1.1-1.9,1.5s-1.5,0.7-2.3,0.8c-0.3,0-0.5,0.1-0.7,0.1c-0.3,0-0.7,0-0.9-0.1c-0.7-0.1-1.4-0.4-2-0.8
				c-0.6-0.4-1-0.9-1.4-1.6c-0.2,0.2-0.5,0.5-1,0.9c-0.5,0.4-1.1,0.8-2,1.1s-1.7,0.5-2.8,0.5c-2,0-3.5-0.6-4.3-1.8
				c-0.9-1.2-1.3-2.9-1.3-5.2V97.7l4.7,0.5v9c0,1,0.1,1.8,0.2,2.5c0.2,0.6,0.5,1.1,0.8,1.4s0.9,0.5,1.6,0.5c0.5,0,0.9-0.1,1.4-0.3
				c0.4-0.2,0.7-0.4,0.9-0.5c0.2-0.2,0.5-0.4,0.9-0.8c0-0.5,0-1.1,0-2.1l0-9.9h4.7l0,9.4C447.7,108.4,447.7,109.2,447.8,109.7z"/>
			<path class="st2" d="M463.7,101.2c-0.4-0.1-0.8-0.1-1.3-0.1c-0.7,0-1.3,0.2-2,0.5c-0.7,0.3-1.2,0.8-1.6,1.3
				c-0.4,0.5-0.6,1.1-0.6,1.7v10.4h-4.7V98.1l4.7-0.4v2.5c0.5-0.8,1.2-1.4,2.1-1.9c0.9-0.5,1.9-0.7,3-0.7c0.5,0,1,0.1,1.5,0.2
				s0.7,0.2,0.9,0.3l-0.6,3.6C464.5,101.4,464,101.3,463.7,101.2z"/>
			<path class="st2" d="M472.5,109.7c0.1,0.6,0.2,1,0.5,1.4s0.6,0.5,1,0.5c0.5,0,0.9-0.1,1.5-0.3c0.5-0.2,0.9-0.4,1.1-0.6l1,2.3
				c-0.6,0.7-1.4,1.3-2.3,1.8c-0.9,0.5-1.8,0.7-2.7,0.7c-1.3,0-2.4-0.3-3.1-1c-0.7-0.7-1.2-1.5-1.4-2.5c-0.2-1-0.4-2.1-0.4-3.4v-7.1
				H466v-3.5h2l4.4-0.5v9.9C472.4,108.3,472.4,109.1,472.5,109.7z M467.9,92c0.5-0.4,1.2-0.6,2.1-0.6c0.9,0,1.6,0.2,2,0.6
				s0.7,0.9,0.7,1.6c0,0.6-0.2,1.2-0.7,1.5s-1.2,0.6-2,0.6c-0.9,0-1.6-0.2-2.1-0.6c-0.5-0.4-0.7-0.9-0.7-1.5
				C467.2,92.8,467.4,92.3,467.9,92z"/>
			<path class="st2" d="M488.1,102.4c-0.4-0.7-1.1-1.1-2.1-1.1c-0.6,0-1.1,0.1-1.5,0.3s-0.9,0.5-1.2,0.7s-0.5,0.4-0.5,0.4v12.1h-4.7
				V98.1l4.7-0.4v2.1c0-0.1,0.3-0.3,0.8-0.7c0.5-0.4,1.1-0.8,1.9-1.1s1.5-0.5,2.3-0.5c2,0,3.5,0.6,4.3,1.8s1.3,2.9,1.3,5.2v3.2
				c0,1,0.1,1.7,0.1,2.3c0.1,0.5,0.2,0.9,0.4,1.2c0.2,0.2,0.5,0.4,1,0.4c0.4,0,0.8-0.1,1.2-0.3c0.4-0.2,0.6-0.4,0.8-0.6l1,2.3
				c0,0-0.2,0.3-0.7,0.7s-1,0.8-1.7,1.2c-0.7,0.4-1.4,0.5-2.2,0.5c-1.8,0-3-0.6-3.7-1.7c-0.7-1.1-1-2.6-1-4.5v-3.4
				C488.7,104.2,488.5,103.1,488.1,102.4z"/>
			<path class="st2" d="M513.1,113.7c0,1.4-0.3,2.7-0.8,4c-0.5,1.2-1.3,2.3-2.4,3c-1.1,0.8-2.5,1.2-4.1,1.2c-0.2,0-0.6,0-1.1-0.1
				c-1.6-0.1-2.8-0.4-3.7-0.8v-3.1c0.3,0.1,0.7,0.3,1.3,0.4c0.6,0.1,1.3,0.2,1.9,0.2c1.2,0,2.2-0.3,2.9-1c0.8-0.7,1.2-1.7,1.2-3.2
				l0.1-1.5c-0.2,0.3-0.4,0.6-0.8,1c-0.4,0.4-0.9,0.7-1.6,1.1c-0.7,0.3-1.4,0.5-2.3,0.5c-2.4,0-4.1-0.9-4.9-2.7s-1.3-3.9-1.3-6.3
				c0-2.7,0.5-4.9,1.5-6.5c1-1.6,2.7-2.4,5.1-2.4c0.8,0,1.5,0.2,2.3,0.5c0.8,0.3,1.4,0.7,1.9,1.2v-1.5l4.7,0.4V113.7z M505.4,101.4
				c-0.8,0-1.4,0.3-1.9,0.8s-0.8,1.2-1,2c-0.2,0.8-0.3,1.5-0.3,2.3c0,1.3,0.3,2.4,0.7,3.3s1.1,1.4,2,1.5l0.2,0
				c0.6,0,1.2-0.2,1.8-0.6s1-0.9,1.4-1.4v-6.6C507.6,101.8,506.6,101.4,505.4,101.4z"/>
		</g>
	</g>
</g>
</svg>
