<?xml version="1.0" encoding="utf-8"?>
<!-- Generator: Adobe Illustrator 24.3.0, SVG Export Plug-In . SVG Version: 6.00 Build 0)  -->
<svg version="1.1" id="Layer_1" xmlns="http://www.w3.org/2000/svg" xmlns:xlink="http://www.w3.org/1999/xlink" x="0px" y="0px"
	 viewBox="0 0 535.5 115.5" style="enable-background:new 0 0 535.5 115.5;" xml:space="preserve">
<style type="text/css">
	.st0{enable-background:new    ;}
	.st1{fill:#007DC4;}
</style>
<g id="Layer_2_1_">
	<g id="Layer_1-2">
		<g class="st0">
			<path class="st1" d="M82.9,6.4L70.7,38.5h-6.1l-5-13l-0.9-2.9h-0.1l-0.4,2.9l-4.9,12.9h-6.1L36.7,10.8l-2.2-4.5H42L49.8,27
				l0.7,3.1h0.1l0.7-3.1l4.5-11.5l-3.5-9.1h7.1L67,27l0.7,3.1h0.1l0.7-3.1l7.7-20.6H82.9z"/>
			<path class="st1" d="M91.6,32.7c0.9,0.7,2.2,1.1,3.9,1.1c0.7,0,1.3,0,1.9-0.1c1.3-0.2,2.6-0.5,4.1-0.9c1.4-0.5,2.6-0.9,3.5-1.2
				l1,4c-0.5,0.4-1.3,0.9-2.5,1.5c-1.2,0.6-2.5,1-4,1.4c-1.5,0.4-3,0.6-4.6,0.6c-2.8,0-5-0.5-6.7-1.4s-2.9-2.3-3.6-4.2
				s-1.1-4.3-1.1-7.3c0-2.8,0.4-5,1.1-6.8c0.7-1.8,2-3.1,3.7-4c1.7-0.9,3.9-1.3,6.8-1.3c3.2,0,5.7,0.7,7.6,2.1
				c1.9,1.4,2.9,3.6,3.1,6.6c0,0.4,0,0.9,0,1.6c0,0.8,0,1.6-0.1,2.3c-0.1,0.7-0.1,1.2-0.1,1.4l-15.3,0.9
				C90.3,30.7,90.7,32,91.6,32.7z M99.3,22.9c0-2.5-1.5-3.7-4.4-3.7c-1.4,0-2.6,0.4-3.3,1.2c-0.8,0.8-1.2,2-1.3,3.6l9-0.4
				C99.3,23.4,99.3,23.2,99.3,22.9z"/>
			<path class="st1" d="M124.2,32.9c1.8,0.5,3.3,0.7,4.6,0.7c1.3,0,2.3-0.2,3.1-0.5c0.7-0.3,1.1-0.9,1.1-1.7c0-0.5-0.2-0.9-0.7-1.3
				s-1.1-0.7-1.8-0.9c-0.7-0.2-1.7-0.5-3-0.8l-1-0.2c-2-0.5-3.5-1.4-4.6-2.6s-1.6-2.7-1.6-4.5c0-0.6,0-1.1,0.1-1.5
				c0.4-2,1.4-3.4,3.3-4.3c1.8-0.9,4.1-1.4,6.8-1.4c1.7,0,3.2,0.2,4.6,0.6c1.4,0.4,2.6,0.9,3.6,1.4l-0.7,5.1
				c-0.6-0.3-1.4-0.6-2.4-0.9c-1-0.3-2-0.5-3.1-0.7c-1-0.1-1.8-0.2-2.5-0.2c-2.1,0-3.2,0.6-3.2,1.7c0,0.7,0.4,1.3,1.1,1.7
				c0.7,0.4,1.8,0.7,3.3,1c2.7,0.5,4.8,1.5,6.3,2.8s2.3,2.9,2.3,4.9c0,1.9-0.5,3.3-1.4,4.5c-1,1.1-2.2,1.9-3.7,2.4
				c-1.5,0.5-3.2,0.7-5,0.7c-0.8,0-1.6,0-2.4-0.1c-3.1-0.3-5.7-1.2-7.8-2.5l0.6-5.3C121.1,31.9,122.4,32.5,124.2,32.9z"/>
			<path class="st1" d="M164.4,31.1c0.1,0.8,0.3,1.5,0.6,1.9c0.3,0.4,0.8,0.7,1.4,0.7c0.6,0,1.3-0.2,2.1-0.5s1.3-0.6,1.6-0.9
				l1.4,3.3c-0.9,1-1.9,1.9-3.2,2.5c-1.3,0.7-2.6,1-3.8,1c-3.1,0-5.1-1.4-6.1-4.1c-0.8,1.2-1.7,2.1-2.8,2.9s-2.4,1.1-3.8,1.2
				c-0.2,0-0.5,0-0.8,0c-3.3,0-5.5-1.3-6.7-3.9c-1.2-2.6-1.8-5.5-1.8-8.9c0-3.8,0.7-6.8,2.2-9.1c1.4-2.2,3.8-3.3,7.2-3.3
				c1,0,2.1,0.2,3.2,0.7c1.1,0.5,2,1,2.6,1.6v-2l6.6,0.6v12.9C164.3,29.1,164.3,30.3,164.4,31.1z M153.5,19.4c-1.1,0-2,0.4-2.7,1.2
				c-0.7,0.8-1.1,1.8-1.4,2.9c-0.3,1.1-0.4,2.2-0.4,3.2c0,1.8,0.4,3.3,1,4.6s1.6,2,2.8,2.1l0.3,0c0.9,0,1.7-0.3,2.5-0.8
				c0.8-0.5,1.5-1.2,1.9-2v-9.3C156.4,20.1,155.1,19.4,153.5,19.4z"/>
			<path class="st1" d="M179.3,31.1c0.1,0.8,0.3,1.5,0.6,1.9c0.3,0.4,0.8,0.7,1.4,0.7c0.6,0,1.3-0.2,2-0.5s1.3-0.6,1.6-0.9l1.4,3.3
				c-0.9,1-1.9,1.8-3.2,2.5c-1.3,0.6-2.6,1-3.8,1c-1.9,0-3.3-0.5-4.3-1.4c-1-0.9-1.7-2-2-3.4c-0.3-1.4-0.5-3-0.5-4.8l0-23.2l6.6-0.7
				v22.1C179.2,29.1,179.2,30.2,179.3,31.1z"/>
			<path class="st1" d="M208.1,31.2c0.1,0.8,0.3,1.4,0.6,1.8c0.3,0.4,0.8,0.6,1.4,0.6c0.6,0,1.3-0.2,2.1-0.5
				c0.7-0.3,1.3-0.6,1.6-0.9l1.4,3.3c-0.7,0.9-1.6,1.6-2.6,2.2c-1,0.6-2.1,1-3.2,1.2c-0.4,0-0.7,0.1-1.1,0.1c-0.5,0-0.9,0-1.3-0.1
				c-1-0.2-2-0.5-2.8-1.1c-0.8-0.6-1.4-1.3-1.9-2.2c-0.2,0.3-0.7,0.7-1.4,1.3c-0.7,0.6-1.6,1.1-2.8,1.6c-1.2,0.5-2.5,0.7-3.9,0.7
				c-2.8,0-4.9-0.8-6.1-2.5c-1.2-1.7-1.8-4.1-1.8-7.3v-15l6.6,0.7v12.6c0,1.4,0.1,2.6,0.4,3.5c0.2,0.9,0.6,1.6,1.2,2
				c0.6,0.4,1.3,0.7,2.3,0.7c0.7,0,1.3-0.1,1.9-0.4c0.6-0.3,1-0.5,1.3-0.7c0.3-0.2,0.7-0.6,1.3-1.1c0-0.6,0-1.6,0-2.9l0-13.9h6.6
				l0,13.2C207.9,29.3,208,30.4,208.1,31.2z"/>
			<path class="st1" d="M222.6,27.8c0,1.4,0.1,2.5,0.2,3.3c0.1,0.8,0.3,1.5,0.6,1.9c0.3,0.4,0.8,0.7,1.4,0.7c0.7,0,1.3-0.2,2.1-0.5
				c0.7-0.3,1.3-0.6,1.6-0.9l1.4,3.3c-0.9,1-1.9,1.9-3.2,2.5s-2.5,1-3.8,1c-2.5,0-4.3-0.8-5.3-2.5s-1.5-3.7-1.5-6.2v-0.6l0-10.3
				h-2.6v-5h2.6V7.9l6.6-0.3v6.9h5l-0.6,5h-4.4l0,8.1V27.8z"/>
			<path class="st1" d="M237.4,32.7c0.9,0.7,2.2,1.1,3.9,1.1c0.7,0,1.3,0,1.9-0.1c1.3-0.2,2.6-0.5,4.1-0.9c1.4-0.5,2.6-0.9,3.5-1.2
				l1,4c-0.5,0.4-1.3,0.9-2.5,1.5c-1.2,0.6-2.5,1-4,1.4c-1.5,0.4-3,0.6-4.6,0.6c-2.8,0-5-0.5-6.7-1.4s-2.9-2.3-3.6-4.2
				s-1.1-4.3-1.1-7.3c0-2.8,0.4-5,1.1-6.8c0.7-1.8,2-3.1,3.7-4c1.7-0.9,3.9-1.3,6.8-1.3c3.2,0,5.7,0.7,7.6,2.1
				c1.9,1.4,2.9,3.6,3.1,6.6c0,0.4,0,0.9,0,1.6c0,0.8,0,1.6-0.1,2.3c-0.1,0.7-0.1,1.2-0.1,1.4L236,28.9
				C236,30.7,236.5,32,237.4,32.7z M245.1,22.9c0-2.5-1.5-3.7-4.4-3.7c-1.4,0-2.6,0.4-3.3,1.2c-0.8,0.8-1.2,2-1.3,3.6l9-0.4
				C245.1,23.4,245.1,23.2,245.1,22.9z"/>
			<path class="st1" d="M282.5,14.7c1.6,0.5,3,1.6,4.1,3.3c1.2,1.7,1.8,4.2,1.8,7.6v1.9c0,3.1-0.5,5.5-1.6,7.2c-1,1.7-2.4,2.9-4,3.5
				c-1.6,0.6-3.5,0.9-5.7,0.9c-2,0-3.7-0.2-5.3-0.7c-1.6-0.5-3-1.6-4.1-3.3c-1.2-1.7-1.8-4.2-1.8-7.6v-1.9c0-3.1,0.5-5.5,1.6-7.2
				c1-1.7,2.4-2.9,4-3.5c1.6-0.6,3.5-0.9,5.7-0.9C279.2,14,280.9,14.2,282.5,14.7z M273.5,31.7c0.7,1.3,1.9,1.9,3.6,1.9
				c1.9,0,3.1-0.7,3.7-2s0.9-3,0.9-5.1c0-2.2-0.3-3.9-1-5.2s-1.9-1.9-3.6-1.9c-1.9,0-3.1,0.7-3.7,2s-0.9,3-0.9,5.1
				C272.5,28.7,272.9,30.4,273.5,31.7z"/>
			<path class="st1" d="M313.2,31.2c0.1,0.8,0.3,1.4,0.6,1.8c0.3,0.4,0.8,0.6,1.4,0.6c0.6,0,1.3-0.2,2.1-0.5
				c0.7-0.3,1.3-0.6,1.6-0.9l1.4,3.3c-0.7,0.9-1.6,1.6-2.6,2.2c-1,0.6-2.1,1-3.2,1.2c-0.4,0-0.7,0.1-1.1,0.1c-0.5,0-0.9,0-1.3-0.1
				c-1-0.2-2-0.5-2.8-1.1c-0.8-0.6-1.4-1.3-1.9-2.2c-0.2,0.3-0.7,0.7-1.4,1.3c-0.7,0.6-1.6,1.1-2.8,1.6c-1.2,0.5-2.5,0.7-3.9,0.7
				c-2.8,0-4.9-0.8-6.1-2.5s-1.8-4.1-1.8-7.3v-15l6.6,0.7v12.6c0,1.4,0.1,2.6,0.4,3.5c0.2,0.9,0.6,1.6,1.2,2
				c0.6,0.4,1.3,0.7,2.3,0.7c0.7,0,1.3-0.1,1.9-0.4c0.6-0.3,1-0.5,1.3-0.7s0.7-0.6,1.3-1.1c0-0.6,0-1.6,0-2.9l0-13.9h6.6l0,13.2
				C313,29.3,313.1,30.4,313.2,31.2z"/>
			<path class="st1" d="M335.5,19.2c-0.5-0.1-1.1-0.2-1.9-0.2c-1,0-1.9,0.2-2.8,0.7c-0.9,0.5-1.7,1.1-2.3,1.9
				c-0.6,0.8-0.9,1.6-0.9,2.4v14.5h-6.6V14.9l6.6-0.6v3.5c0.7-1.1,1.7-2,2.9-2.7s2.6-1.1,4.2-1.1c0.7,0,1.4,0.1,2.1,0.3
				c0.6,0.2,1,0.3,1.2,0.5l-0.9,5C336.6,19.5,336,19.3,335.5,19.2z"/>
			<path class="st1" d="M360.7,20.1h13V6.4h6.9v32.1h-6.9v-13h-13v13h-6.8V11.8l-0.5-5.4h7.3V20.1z"/>
			<path class="st1" d="M392.8,32.7c0.9,0.7,2.2,1.1,3.9,1.1c0.7,0,1.3,0,1.9-0.1c1.3-0.2,2.6-0.5,4.1-0.9c1.4-0.5,2.6-0.9,3.5-1.2
				l1,4c-0.5,0.4-1.3,0.9-2.5,1.5c-1.2,0.6-2.5,1-4,1.4c-1.5,0.4-3,0.6-4.6,0.6c-2.8,0-5-0.5-6.7-1.4c-1.7-0.9-2.9-2.3-3.6-4.2
				s-1.1-4.3-1.1-7.3c0-2.8,0.4-5,1.1-6.8c0.7-1.8,2-3.1,3.7-4c1.7-0.9,3.9-1.3,6.8-1.3c3.2,0,5.7,0.7,7.6,2.1
				c1.9,1.4,2.9,3.6,3.1,6.6c0,0.4,0,0.9,0,1.6c0,0.8,0,1.6-0.1,2.3c-0.1,0.7-0.1,1.2-0.1,1.4l-15.3,0.9
				C391.4,30.7,391.9,32,392.8,32.7z M400.5,22.9c0-2.5-1.5-3.7-4.4-3.7c-1.4,0-2.6,0.4-3.3,1.2c-0.8,0.8-1.2,2-1.3,3.6l9-0.4
				C400.5,23.4,400.5,23.2,400.5,22.9z"/>
		</g>
		<g class="st0">
			<path class="st1" d="M425.3,19.2c-0.5-0.1-1.1-0.2-1.9-0.2c-1,0-1.9,0.2-2.8,0.7c-0.9,0.5-1.7,1.1-2.3,1.9
				c-0.6,0.8-0.9,1.6-0.9,2.4v14.5h-6.6V14.9l6.6-0.6v3.5c0.7-1.1,1.7-2,2.9-2.7s2.6-1.1,4.2-1.1c0.7,0,1.4,0.1,2.1,0.3
				c0.6,0.2,1,0.3,1.2,0.5l-0.9,5C426.4,19.5,425.8,19.3,425.3,19.2z"/>
		</g>
		<g class="st0">
			<path class="st1" d="M444.1,14.7c1.6,0.5,3,1.6,4.1,3.3c1.2,1.7,1.8,4.2,1.8,7.6v1.9c0,3.1-0.5,5.5-1.6,7.2c-1,1.7-2.4,2.9-4,3.5
				s-3.5,0.9-5.7,0.9c-2,0-3.7-0.2-5.3-0.7c-1.6-0.5-3-1.6-4.1-3.3c-1.2-1.7-1.8-4.2-1.8-7.6v-1.9c0-3.1,0.5-5.5,1.6-7.2
				c1-1.7,2.4-2.9,4-3.5c1.6-0.6,3.5-0.9,5.7-0.9C440.7,14,442.5,14.2,444.1,14.7z M435.1,31.7c0.7,1.3,1.9,1.9,3.6,1.9
				c1.9,0,3.1-0.7,3.7-2s0.9-3,0.9-5.1c0-2.2-0.3-3.9-1-5.2c-0.7-1.3-1.9-1.9-3.6-1.9c-1.9,0-3.1,0.7-3.7,2s-0.9,3-0.9,5.1
				C434.1,28.7,434.5,30.4,435.1,31.7z"/>
			<path class="st1" d="M460.9,32.7c0.9,0.7,2.2,1.1,3.9,1.1c0.7,0,1.3,0,1.9-0.1c1.3-0.2,2.6-0.5,4.1-0.9c1.4-0.5,2.6-0.9,3.5-1.2
				l1,4c-0.5,0.4-1.3,0.9-2.5,1.5s-2.5,1-4,1.4s-3,0.6-4.6,0.6c-2.8,0-5-0.5-6.7-1.4c-1.7-0.9-2.9-2.3-3.6-4.2
				c-0.7-1.9-1.1-4.3-1.1-7.3c0-2.8,0.4-5,1.1-6.8c0.7-1.8,2-3.1,3.7-4c1.7-0.9,3.9-1.3,6.8-1.3c3.2,0,5.7,0.7,7.6,2.1
				c1.9,1.4,2.9,3.6,3.1,6.6c0,0.4,0,0.9,0,1.6c0,0.8,0,1.6-0.1,2.3s-0.1,1.2-0.1,1.4l-15.3,0.9C459.5,30.7,460,32,460.9,32.7z
				 M468.6,22.9c0-2.5-1.5-3.7-4.4-3.7c-1.4,0-2.6,0.4-3.3,1.2c-0.8,0.8-1.2,2-1.3,3.6l9-0.4C468.6,23.4,468.6,23.2,468.6,22.9z"/>
			<path class="st1" d="M482,32.9c1.8,0.5,3.3,0.7,4.6,0.7c1.3,0,2.3-0.2,3.1-0.5c0.7-0.3,1.1-0.9,1.1-1.7c0-0.5-0.2-0.9-0.7-1.3
				c-0.5-0.4-1.1-0.7-1.8-0.9c-0.7-0.2-1.7-0.5-3-0.8l-1-0.2c-2-0.5-3.5-1.4-4.6-2.6c-1.1-1.2-1.6-2.7-1.6-4.5c0-0.6,0-1.1,0.1-1.5
				c0.4-2,1.4-3.4,3.3-4.3s4.1-1.4,6.8-1.4c1.7,0,3.2,0.2,4.6,0.6c1.4,0.4,2.6,0.9,3.6,1.4l-0.7,5.1c-0.6-0.3-1.4-0.6-2.4-0.9
				c-1-0.3-2-0.5-3.1-0.7c-1-0.1-1.8-0.2-2.5-0.2c-2.1,0-3.2,0.6-3.2,1.7c0,0.7,0.4,1.3,1.1,1.7c0.7,0.4,1.8,0.7,3.3,1
				c2.7,0.5,4.8,1.5,6.3,2.8s2.3,2.9,2.3,4.9c0,1.9-0.5,3.3-1.4,4.5c-1,1.1-2.2,1.9-3.7,2.4c-1.5,0.5-3.2,0.7-5,0.7
				c-0.8,0-1.6,0-2.4-0.1c-3.1-0.3-5.7-1.2-7.8-2.5l0.6-5.3C478.9,31.9,480.3,32.5,482,32.9z"/>
		</g>
		<g class="st0">
			<path class="st1" d="M2.9,81.5H0v-5h2.9c0-2.5,0.1-4.5,0.4-6.1c0.3-1.6,1-2.9,2-3.9c1.1-1,2.7-1.6,4.8-1.6c1.5,0,2.8,0.2,3.9,0.7
				c1.1,0.5,2.1,1,3,1.7l-0.7,4.3c0,0-0.2-0.1-0.7-0.4c-0.4-0.2-1-0.4-1.6-0.6c-0.6-0.2-1.2-0.3-1.8-0.3c-0.9,0-1.5,0.3-2,1
				s-0.7,1.7-0.8,3v2.2h5.9l-0.6,5H9.5l0,19H2.9V81.5z"/>
			<path class="st1" d="M34.4,76.7c1.6,0.5,3,1.6,4.1,3.3c1.2,1.7,1.8,4.2,1.8,7.6v1.9c0,3.1-0.5,5.5-1.6,7.2c-1,1.7-2.4,2.9-4,3.5
				c-1.6,0.6-3.5,0.9-5.7,0.9c-2,0-3.7-0.2-5.3-0.7c-1.6-0.5-3-1.6-4.1-3.3c-1.2-1.7-1.8-4.2-1.8-7.6v-1.9c0-3.1,0.5-5.5,1.6-7.2
				c1-1.7,2.4-2.9,4-3.5C25,76.3,26.9,76,29,76C31,76,32.8,76.2,34.4,76.7z M25.4,93.7c0.7,1.3,1.9,1.9,3.6,1.9c1.9,0,3.1-0.7,3.7-2
				s0.9-3,0.9-5.1c0-2.2-0.3-3.9-1-5.2c-0.7-1.3-1.9-1.9-3.6-1.9c-1.9,0-3.1,0.7-3.7,2s-0.9,3-0.9,5.1
				C24.3,90.7,24.7,92.4,25.4,93.7z"/>
			<path class="st1" d="M58.5,81.2C58,81,57.4,81,56.7,81c-1,0-1.9,0.2-2.8,0.7c-0.9,0.5-1.7,1.1-2.3,1.9c-0.6,0.8-0.9,1.6-0.9,2.4
				v14.5h-6.6V76.9l6.6-0.6v3.5c0.7-1.1,1.7-2,2.9-2.7s2.6-1.1,4.2-1.1c0.7,0,1.4,0.1,2.1,0.3c0.6,0.2,1,0.3,1.2,0.5l-0.9,5
				C59.6,81.5,59,81.3,58.5,81.2z"/>
			<path class="st1" d="M96,98.8c0,2-0.4,3.8-1.1,5.6c-0.7,1.7-1.8,3.2-3.4,4.3c-1.5,1.1-3.5,1.6-5.8,1.6c-0.3,0-0.8,0-1.6-0.1
				c-2.2-0.1-4-0.5-5.2-1.2v-4.4c0.4,0.2,1,0.4,1.8,0.6c0.9,0.2,1.8,0.3,2.7,0.3c1.7,0,3-0.5,4.1-1.4c1.1-0.9,1.7-2.4,1.7-4.6
				l0.1-2.1c-0.2,0.4-0.6,0.9-1.1,1.4c-0.5,0.5-1.2,1-2.2,1.5c-0.9,0.5-2,0.7-3.3,0.7c-3.4,0-5.7-1.3-6.9-3.8
				c-1.2-2.5-1.8-5.5-1.8-8.9c0-3.8,0.7-6.8,2.2-9.1c1.4-2.2,3.8-3.3,7.2-3.3c1.1,0,2.1,0.2,3.2,0.7c1.1,0.5,2,1,2.6,1.6v-2.1
				l6.6,0.6V98.8z M85.2,81.4c-1.1,0-2,0.4-2.7,1.2c-0.7,0.8-1.1,1.7-1.4,2.8c-0.3,1.1-0.4,2.2-0.4,3.2c0,1.8,0.4,3.3,1,4.6
				s1.6,2,2.8,2.1l0.4,0c0.9,0,1.7-0.3,2.5-0.8s1.4-1.2,1.9-2v-9.2C88.2,82.1,86.8,81.4,85.2,81.4z"/>
			<path class="st1" d="M107.7,93.1c0.1,0.8,0.3,1.5,0.6,1.9c0.3,0.4,0.8,0.7,1.4,0.7c0.6,0,1.3-0.2,2.1-0.5
				c0.7-0.3,1.3-0.6,1.6-0.9l1.4,3.3c-0.9,1-1.9,1.9-3.2,2.5s-2.6,1-3.8,1c-1.9,0-3.3-0.5-4.3-1.4c-1-0.9-1.7-2.1-2-3.5
				c-0.3-1.4-0.5-3-0.5-4.8v-10h-2.3v-5h2.8l6.1-0.6v13.8C107.5,91.1,107.6,92.3,107.7,93.1z M101.2,68.2c0.7-0.5,1.7-0.8,2.9-0.8
				c1.2,0,2.2,0.3,2.9,0.8c0.7,0.5,1,1.2,1,2.2c0,0.9-0.3,1.6-1,2.1c-0.7,0.5-1.6,0.8-2.9,0.8c-1.3,0-2.2-0.3-2.9-0.8
				c-0.7-0.5-1-1.2-1-2.2S100.5,68.8,101.2,68.2z"/>
			<path class="st1" d="M136.5,82.6c0.2,1.7,0.3,3.4,0.3,5c0,2.7-0.5,5.1-1.5,7.1c-1,2-2.5,3.6-4.4,4.7c-1.9,1.1-4.2,1.7-6.8,1.7
				l-5.6-0.4l-4-19.2h-1.7v-5h7.6l4,19c2-0.2,3.5-1.1,4.4-2.6c0.9-1.5,1.4-3.7,1.4-6.6v-0.7c0-0.7-0.1-1.7-0.2-3s-0.3-2.5-0.5-3.6
				c-0.2-1.1-0.3-1.8-0.3-2.2l6.6-0.6C136.1,78.8,136.3,80.9,136.5,82.6z"/>
			<path class="st1" d="M147.9,93.1c0.1,0.8,0.3,1.5,0.6,1.9c0.3,0.4,0.8,0.7,1.4,0.7c0.6,0,1.3-0.2,2.1-0.5
				c0.7-0.3,1.3-0.6,1.6-0.9l1.4,3.3c-0.9,1-1.9,1.9-3.2,2.5s-2.6,1-3.8,1c-1.9,0-3.3-0.5-4.3-1.4c-1-0.9-1.7-2.1-2-3.5
				c-0.3-1.4-0.5-3-0.5-4.8v-10h-2.3v-5h2.8l6.1-0.6v13.8C147.8,91.1,147.8,92.3,147.9,93.1z M141.5,68.2c0.7-0.5,1.7-0.8,2.9-0.8
				c1.2,0,2.2,0.3,2.9,0.8c0.7,0.5,1,1.2,1,2.2c0,0.9-0.3,1.6-1,2.1c-0.7,0.5-1.6,0.8-2.9,0.8c-1.3,0-2.2-0.3-2.9-0.8
				c-0.7-0.5-1-1.2-1-2.2S140.8,68.8,141.5,68.2z"/>
			<path class="st1" d="M169.9,82.9c-0.6-1-1.6-1.5-3-1.5c-0.8,0-1.5,0.2-2.2,0.5s-1.2,0.7-1.6,1c-0.4,0.4-0.7,0.6-0.7,0.6v17h-6.6
				V76.9l6.6-0.6v2.9c0-0.1,0.4-0.4,1.1-1c0.7-0.6,1.6-1.1,2.6-1.5c1-0.5,2.1-0.7,3.3-0.7c2.8,0,4.9,0.8,6.1,2.5
				c1.2,1.7,1.8,4.1,1.8,7.3v4.5c0,1.4,0.1,2.4,0.2,3.2c0.1,0.7,0.3,1.3,0.6,1.6s0.8,0.5,1.4,0.5c0.6,0,1.1-0.1,1.6-0.4
				c0.5-0.3,0.9-0.5,1.1-0.8l1.4,3.3c0,0.1-0.3,0.4-0.9,1c-0.6,0.6-1.4,1.1-2.3,1.6c-0.9,0.5-2,0.7-3.1,0.7c-2.5,0-4.3-0.8-5.2-2.4
				c-0.9-1.6-1.4-3.7-1.4-6.3v-4.8C170.7,85.5,170.4,83.9,169.9,82.9z"/>
			<path class="st1" d="M205,98.8c0,2-0.4,3.8-1.1,5.6c-0.7,1.7-1.8,3.2-3.4,4.3c-1.5,1.1-3.5,1.6-5.8,1.6c-0.3,0-0.8,0-1.6-0.1
				c-2.2-0.1-4-0.5-5.2-1.2v-4.4c0.4,0.2,1,0.4,1.8,0.6c0.9,0.2,1.8,0.3,2.7,0.3c1.7,0,3-0.5,4.1-1.4c1.1-0.9,1.7-2.4,1.7-4.6
				l0.1-2.1c-0.2,0.4-0.6,0.9-1.1,1.4c-0.5,0.5-1.2,1-2.2,1.5c-0.9,0.5-2,0.7-3.3,0.7c-3.4,0-5.7-1.3-6.9-3.8
				c-1.2-2.5-1.8-5.5-1.8-8.9c0-3.8,0.7-6.8,2.2-9.1c1.4-2.2,3.8-3.3,7.2-3.3c1.1,0,2.1,0.2,3.2,0.7c1.1,0.5,2,1,2.6,1.6v-2.1
				l6.6,0.6V98.8z M194.2,81.4c-1.1,0-2,0.4-2.7,1.2c-0.7,0.8-1.1,1.7-1.4,2.8c-0.3,1.1-0.4,2.2-0.4,3.2c0,1.8,0.4,3.3,1,4.6
				s1.6,2,2.8,2.1l0.4,0c0.9,0,1.7-0.3,2.5-0.8s1.4-1.2,1.9-2v-9.2C197.1,82.1,195.7,81.4,194.2,81.4z"/>
			<path class="st1" d="M229.4,68.4v32.1h-6.8V73.8l-0.5-5.4H229.4z"/>
			<path class="st1" d="M248.9,82.9c-0.6-1-1.6-1.5-3-1.5c-0.8,0-1.5,0.2-2.2,0.5s-1.2,0.7-1.6,1c-0.4,0.4-0.7,0.6-0.7,0.6v17h-6.6
				V76.9l6.6-0.6v2.9c0-0.1,0.4-0.4,1.1-1c0.7-0.6,1.6-1.1,2.6-1.5c1-0.5,2.1-0.7,3.3-0.7c2.8,0,4.9,0.8,6.1,2.5
				c1.2,1.7,1.8,4.1,1.8,7.3v4.5c0,1.4,0.1,2.4,0.2,3.2c0.1,0.7,0.3,1.3,0.6,1.6s0.8,0.5,1.4,0.5c0.6,0,1.1-0.1,1.6-0.4
				c0.5-0.3,0.9-0.5,1.1-0.8l1.4,3.3c0,0.1-0.3,0.4-0.9,1c-0.6,0.6-1.4,1.1-2.3,1.6c-0.9,0.5-2,0.7-3.1,0.7c-2.5,0-4.3-0.8-5.2-2.4
				c-0.9-1.6-1.4-3.7-1.4-6.3v-4.8C249.7,85.5,249.5,83.9,248.9,82.9z"/>
			<path class="st1" d="M270.6,101.1c-3.3,0-5.5-1.3-6.7-3.9c-1.2-2.6-1.8-5.5-1.8-8.9c0-3.8,0.7-6.8,2.2-9.1
				c1.4-2.2,3.8-3.3,7.2-3.3c1.1,0,2.1,0.2,3.2,0.7c1.1,0.5,1.9,1,2.7,1.6v-9.9l6.6-0.6v22.5c0,1.9,0.2,3.2,0.5,4.1
				c0.3,0.8,0.9,1.3,1.7,1.3c0.6,0,1.4-0.2,2.2-0.5c0.8-0.4,1.4-0.7,1.7-0.9l1.4,3.3c-0.9,1-2,1.9-3.3,2.6c-1.3,0.7-2.6,1-3.9,1
				c-3.1,0-5.1-1.4-6.1-4.1c-0.8,1.2-1.7,2.2-2.8,2.9c-1.1,0.7-2.4,1.1-3.8,1.2C271.3,101.1,271,101.1,270.6,101.1z M273.2,81.4
				c-1.1,0-2,0.4-2.7,1.2c-0.7,0.8-1.1,1.8-1.4,2.9c-0.3,1.1-0.4,2.2-0.4,3.2c0,1.8,0.4,3.3,1,4.6s1.6,2,2.8,2.1l0.4,0
				c0.9,0,1.7-0.3,2.5-0.8c0.8-0.5,1.4-1.2,1.9-2v-9.3C276.1,82.1,274.7,81.4,273.2,81.4z"/>
			<path class="st1" d="M298.6,93.1c0.1,0.8,0.3,1.5,0.6,1.9c0.3,0.4,0.8,0.7,1.4,0.7c0.6,0,1.3-0.2,2.1-0.5s1.3-0.6,1.6-0.9
				l1.4,3.3c-0.9,1-1.9,1.9-3.2,2.5s-2.6,1-3.8,1c-1.9,0-3.3-0.5-4.3-1.4c-1-0.9-1.7-2.1-2-3.5c-0.3-1.4-0.5-3-0.5-4.8v-10h-2.3v-5
				h2.8l6.1-0.6v13.8C298.4,91.1,298.5,92.3,298.6,93.1z M292.1,68.2c0.7-0.5,1.7-0.8,2.9-0.8c1.2,0,2.2,0.3,2.9,0.8
				c0.7,0.5,1,1.2,1,2.2c0,0.9-0.3,1.6-1,2.1c-0.7,0.5-1.6,0.8-2.9,0.8c-1.3,0-2.2-0.3-2.9-0.8c-0.7-0.5-1-1.2-1-2.2
				S291.4,68.8,292.1,68.2z"/>
			<path class="st1" d="M327.4,93.1c0.1,0.8,0.3,1.5,0.6,1.9c0.3,0.4,0.8,0.7,1.4,0.7c0.6,0,1.3-0.2,2.1-0.5s1.3-0.6,1.6-0.9
				l1.4,3.3c-0.9,1-1.9,1.9-3.2,2.5s-2.6,1-3.8,1c-3.1,0-5.1-1.4-6.1-4.1c-0.8,1.2-1.7,2.1-2.8,2.9c-1.1,0.7-2.4,1.1-3.8,1.2
				c-0.2,0-0.5,0-0.8,0c-3.3,0-5.5-1.3-6.7-3.9c-1.2-2.6-1.8-5.5-1.8-8.9c0-3.8,0.7-6.8,2.2-9.1c1.4-2.2,3.8-3.3,7.2-3.3
				c1,0,2.1,0.2,3.2,0.7c1.1,0.5,2,1,2.6,1.6v-2l6.6,0.6v12.9C327.2,91.1,327.2,92.3,327.4,93.1z M316.4,81.4c-1.1,0-2,0.4-2.7,1.2
				c-0.7,0.8-1.1,1.8-1.4,2.9c-0.3,1.1-0.4,2.2-0.4,3.2c0,1.8,0.4,3.3,1,4.6s1.6,2,2.8,2.1l0.3,0c0.9,0,1.7-0.3,2.5-0.8
				c0.8-0.5,1.5-1.2,1.9-2v-9.3C319.4,82.1,318,81.4,316.4,81.4z"/>
			<path class="st1" d="M371.1,68.4l-0.5,5.4H355v8.6h12.1l-0.5,5.4H355v12.7h-6.8V73.8l-0.5-5.4H371.1z"/>
		</g>
		<g class="st0">
			<path class="st1" d="M387.3,81.2c-0.5-0.1-1.1-0.2-1.9-0.2c-1,0-1.9,0.2-2.8,0.7c-0.9,0.5-1.7,1.1-2.3,1.9
				c-0.6,0.8-0.9,1.6-0.9,2.4v14.5h-6.6V76.9l6.6-0.6v3.5c0.7-1.1,1.7-2,2.9-2.7s2.6-1.1,4.2-1.1c0.7,0,1.4,0.1,2.1,0.3
				c0.6,0.2,1,0.3,1.2,0.5l-0.9,5C388.4,81.5,387.8,81.3,387.3,81.2z"/>
		</g>
		<g class="st0">
			<path class="st1" d="M397.5,94.7c0.9,0.7,2.2,1.1,3.9,1.1c0.7,0,1.3,0,1.9-0.1c1.3-0.2,2.6-0.5,4.1-0.9c1.4-0.5,2.6-0.9,3.5-1.2
				l1,4c-0.5,0.4-1.3,0.9-2.5,1.5c-1.2,0.6-2.5,1-4,1.4c-1.5,0.4-3,0.6-4.6,0.6c-2.8,0-5-0.5-6.7-1.4c-1.7-0.9-2.9-2.3-3.6-4.2
				c-0.7-1.9-1.1-4.3-1.1-7.3c0-2.8,0.4-5,1.1-6.8c0.7-1.8,2-3.1,3.7-4s3.9-1.3,6.8-1.3c3.2,0,5.7,0.7,7.6,2.1
				c1.9,1.4,2.9,3.6,3.1,6.6c0,0.4,0,0.9,0,1.6c0,0.8,0,1.6-0.1,2.3c-0.1,0.7-0.1,1.2-0.1,1.4l-15.3,0.9
				C396.2,92.7,396.6,94,397.5,94.7z M405.2,84.9c0-2.5-1.5-3.7-4.4-3.7c-1.4,0-2.6,0.4-3.3,1.2c-0.8,0.8-1.2,2-1.3,3.6l9-0.4
				C405.2,85.4,405.2,85.2,405.2,84.9z"/>
			<path class="st1" d="M422.7,94.7c0.9,0.7,2.2,1.1,3.9,1.1c0.7,0,1.3,0,1.9-0.1c1.3-0.2,2.6-0.5,4.1-0.9c1.4-0.5,2.6-0.9,3.5-1.2
				l1,4c-0.5,0.4-1.3,0.9-2.5,1.5c-1.2,0.6-2.5,1-4,1.4c-1.5,0.4-3,0.6-4.6,0.6c-2.8,0-5-0.5-6.7-1.4c-1.7-0.9-2.9-2.3-3.6-4.2
				c-0.7-1.9-1.1-4.3-1.1-7.3c0-2.8,0.4-5,1.1-6.8c0.7-1.8,2-3.1,3.7-4s3.9-1.3,6.8-1.3c3.2,0,5.7,0.7,7.6,2.1
				c1.9,1.4,2.9,3.6,3.1,6.6c0,0.4,0,0.9,0,1.6c0,0.8,0,1.6-0.1,2.3c-0.1,0.7-0.1,1.2-0.1,1.4l-15.3,0.9
				C421.3,92.7,421.8,94,422.7,94.7z M430.4,84.9c0-2.5-1.5-3.7-4.4-3.7c-1.4,0-2.6,0.4-3.3,1.2c-0.8,0.8-1.2,2-1.3,3.6l9-0.4
				C430.4,85.4,430.4,85.2,430.4,84.9z"/>
			<path class="st1" d="M448.3,101.1c-3.3,0-5.5-1.3-6.7-3.9c-1.2-2.6-1.8-5.5-1.8-8.9c0-3.8,0.7-6.8,2.2-9.1
				c1.4-2.2,3.8-3.3,7.2-3.3c1.1,0,2.1,0.2,3.2,0.7c1.1,0.5,1.9,1,2.7,1.6v-9.9l6.6-0.6v22.5c0,1.9,0.2,3.2,0.5,4.1
				c0.3,0.8,0.9,1.3,1.7,1.3c0.6,0,1.4-0.2,2.2-0.5s1.4-0.7,1.7-0.9l1.4,3.3c-0.9,1-2,1.9-3.3,2.6c-1.3,0.7-2.6,1-3.9,1
				c-3.1,0-5.1-1.4-6.1-4.1c-0.8,1.2-1.7,2.2-2.8,2.9c-1.1,0.7-2.4,1.1-3.8,1.2C448.9,101.1,448.6,101.1,448.3,101.1z M450.8,81.4
				c-1.1,0-2,0.4-2.7,1.2c-0.7,0.8-1.1,1.8-1.4,2.9c-0.3,1.1-0.4,2.2-0.4,3.2c0,1.8,0.4,3.3,1,4.6s1.6,2,2.8,2.1l0.4,0
				c0.9,0,1.7-0.3,2.5-0.8c0.8-0.5,1.4-1.2,1.9-2v-9.3C453.8,82.1,452.4,81.4,450.8,81.4z"/>
			<path class="st1" d="M484.7,76.7c1.6,0.5,3,1.6,4.1,3.3c1.2,1.7,1.8,4.2,1.8,7.6v1.9c0,3.1-0.5,5.5-1.6,7.2c-1,1.7-2.4,2.9-4,3.5
				c-1.6,0.6-3.5,0.9-5.7,0.9c-2,0-3.7-0.2-5.3-0.7c-1.6-0.5-3-1.6-4.1-3.3s-1.8-4.2-1.8-7.6v-1.9c0-3.1,0.5-5.5,1.6-7.2
				c1-1.7,2.4-2.9,4-3.5c1.6-0.6,3.5-0.9,5.7-0.9C481.3,76,483.1,76.2,484.7,76.7z M475.7,93.7c0.7,1.3,1.9,1.9,3.6,1.9
				c1.9,0,3.1-0.7,3.7-2s0.9-3,0.9-5.1c0-2.2-0.3-3.9-1-5.2s-1.9-1.9-3.6-1.9c-1.9,0-3.1,0.7-3.7,2s-0.9,3-0.9,5.1
				C474.7,90.7,475,92.4,475.7,93.7z"/>
			<path class="st1" d="M529,89.9c0,1.5,0.1,2.6,0.2,3.4c0.1,0.8,0.3,1.4,0.6,1.8c0.3,0.4,0.8,0.6,1.4,0.6c0.6,0,1.1-0.2,1.7-0.5
				c0.5-0.3,0.9-0.7,1.2-1l1.4,3.3c0,0.1-0.3,0.4-0.9,1.1c-0.6,0.6-1.4,1.2-2.4,1.8c-1,0.5-2,0.8-3.1,0.8c-2.5,0-4.3-0.8-5.2-2.4
				s-1.4-3.7-1.4-6.3v-4.5c0-1.3-0.1-2.4-0.2-3.3c-0.1-0.9-0.4-1.6-0.8-2.3c-0.5-0.6-1.2-1-2.1-1c-1,0-1.8,0.2-2.6,0.7
				c-0.7,0.5-1.3,1.1-1.6,1.8v16.6h-6.6V89.3c0-1.7-0.1-3-0.2-4.1c-0.1-1.1-0.5-2-1-2.7c-0.5-0.7-1.2-1-2.2-1
				c-0.9,0-1.7,0.2-2.5,0.7c-0.8,0.5-1.3,1-1.6,1.7v16.7h-6.6V76.9l6.6-0.6l0,3c0.7-0.9,1.6-1.6,2.9-2.3s2.6-1,4-1c3,0,5,1.2,6,3.6
				c1.1-1.1,2.3-2,3.8-2.6c1.4-0.6,2.9-1,4.5-1c4.5,0,6.8,3.4,6.8,10.1V89.9z"/>
		</g>
	</g>
</g>
</svg>
